
<?xml version="1.0" standalone="no"?>
<!DOCTYPE svg PUBLIC "-//W3C//DTD SVG 1.1//EN" "http://www.w3.org/Graphics/SVG/1.1/DTD/svg11.dtd" >
<svg xmlns="http://www.w3.org/2000/svg" xmlns:xlink="http://www.w3.org/1999/xlink" version="1.1">
<metadata></metadata>
<defs>
<font id="utm_bryantlgregular" horiz-adv-x="1466" >
<font-face units-per-em="2048" ascent="1638" descent="-410" />
<missing-glyph horiz-adv-x="614" />
<glyph horiz-adv-x="0" />
<glyph unicode="&#xd;" horiz-adv-x="571" />
<glyph unicode=" "  horiz-adv-x="614" />
<glyph unicode="&#x09;" horiz-adv-x="614" />
<glyph unicode="&#xa0;" horiz-adv-x="614" />
<glyph unicode="!" horiz-adv-x="573" d="M200 74q0 86 86 86t86 -86t-86 -86t-86 86zM225 756v563q0 61 61 61t61 -61v-563l-28 -400q-4 -37 -33 -37t-33 37z" />
<glyph unicode="&#x22;" horiz-adv-x="782" d="M153 938v387q0 55 55 55q56 0 56 -55v-387q0 -55 -56 -55q-55 0 -55 55zM518 938v387q0 55 55 55t55 -55v-387q0 -55 -55 -55t-55 55z" />
<glyph unicode="#" d="M122 442q0 52 51 52h197l43 395h-195q-45 0 -45 45q0 51 55 51h195l39 344q6 51 55 51q53 0 47 -59l-39 -336h490l39 344q6 51 57 51q54 0 47 -55l-39 -340h193q47 0 47 -45q0 -51 -51 -51h-199l-43 -395h195q45 0 45 -45q0 -52 -51 -52h-199l-41 -360q-7 -53 -55 -53 q-56 0 -47 61l38 352h-489l-43 -362q-7 -51 -55 -51q-52 0 -47 53l41 360h-189q-47 0 -47 45zM472 494h490l45 395h-490z" />
<glyph unicode="$" horiz-adv-x="1251" d="M153 219q0 49 51 49q24 0 49 -18q43 -31 76 -50q43 -25 85 -41q101 -38 231 -38q342 0 342 237q0 102 -111 173q-46 30 -118 60q-30 12 -69 26l-73 26q-244 85 -345 173q-100 86 -100 208q0 305 422 322v186q0 53 58 53q57 0 57 -53v-189q181 -16 330 -112q28 -19 28 -43 q0 -53 -55 -53q-16 0 -33 10q-175 98 -340 98q-346 0 -346 -217q0 -94 82 -154q38 -27 104 -57q50 -22 148 -59l114 -44q56 -22 98 -40q95 -43 150 -83q119 -87 119 -231q0 -306 -413 -342v-184q0 -53 -58 -53q-57 0 -57 53v186q-231 19 -397 152q-29 25 -29 49z" />
<glyph unicode="%" horiz-adv-x="1734" d="M122 1063q0 136 94 230q95 96 234 96t233 -96q94 -94 94 -230q0 -137 -94 -231q-94 -95 -233 -95q-140 0 -234 95q-94 94 -94 231zM226 1063q0 -99 61 -165q63 -69 163 -69q99 0 162 69q61 66 61 165t-61 165q-63 68 -162 68q-100 0 -163 -68q-61 -66 -61 -165zM417 25 q0 14 18 45l787 1286q15 26 45 26q49 0 49 -49q0 -15 -10 -33l-797 -1298q-15 -27 -43 -27q-49 0 -49 50zM951 301q0 136 94 230q95 96 234 96t234 -96q94 -94 94 -230q0 -137 -94 -231q-95 -95 -234 -95t-234 95q-94 94 -94 231zM1056 301q0 -99 61 -165q63 -68 162 -68 t162 68q61 66 61 165t-61 165q-63 69 -162 69t-162 -69q-61 -66 -61 -165z" />
<glyph unicode="&#x26;" d="M143 326q0 159 112 278q48 51 121 99q62 40 150 83q-75 98 -110 171q-42 87 -42 169q0 263 293 263q128 0 206 -76q75 -74 75 -189q0 -106 -78 -205q-72 -92 -197 -163l308 -457q44 59 80 132l59 130q14 31 45 31q55 0 55 -51q0 -6 -4 -19q-35 -84 -70 -148 q-44 -82 -104 -161l43 -58q23 -29 43 -46q46 -41 107 -41q59 0 127 38q9 7 22 7q41 0 41 -43q0 -19 -14 -33q-59 -62 -176 -62q-96 0 -156 41q-45 31 -113 121q-161 -162 -409 -162q-200 0 -312 105q-102 95 -102 246zM262 330q0 -258 301 -258q198 0 344 149l-330 484 q-80 -46 -124 -75q-62 -41 -100 -81q-91 -93 -91 -219zM489 1124q0 -64 39 -144q33 -69 94 -146q215 105 215 284q0 176 -174 176t-174 -170z" />
<glyph unicode="'" horiz-adv-x="417" d="M153 938v387q0 55 55 55q56 0 56 -55v-387q0 -55 -56 -55q-55 0 -55 55z" />
<glyph unicode="(" horiz-adv-x="645" d="M184 553q0 223 60 427q65 220 206 450q18 24 45 24q58 0 58 -53q0 -16 -11 -33q-122 -212 -176 -397q-59 -197 -59 -418t59 -418q54 -185 176 -397q11 -17 11 -33q0 -53 -58 -53q-27 0 -45 24q-141 230 -206 449q-60 205 -60 428z" />
<glyph unicode=")" horiz-adv-x="645" d="M92 -295q0 16 10 33q122 212 177 397q59 197 59 418t-59 418q-55 185 -177 397q-10 17 -10 33q0 53 57 53q28 0 45 -24q142 -230 206 -450q61 -204 61 -427t-61 -428q-64 -219 -206 -449q-17 -24 -45 -24q-57 0 -57 53z" />
<glyph unicode="*" horiz-adv-x="839" d="M92 1094q0 34 35 34h231l-119 197q-6 12 -6 23q0 32 37 32q20 0 31 -16l119 -205l118 205q11 16 31 16q37 0 37 -32q0 -11 -6 -23l-119 -197h232q34 0 34 -34q0 -35 -34 -35h-232l119 -195q8 -13 8 -24q0 -33 -39 -33q-20 0 -33 22l-116 201l-117 -201q-13 -22 -33 -22 q-39 0 -39 33q0 11 8 24l119 195h-231q-35 0 -35 35z" />
<glyph unicode="+" horiz-adv-x="1146" d="M112 662q0 55 59 55h342v346q0 59 60 59q59 0 59 -59v-346h342q60 0 60 -55q0 -56 -60 -56h-342v-346q0 -59 -59 -59q-60 0 -60 59v346h-342q-59 0 -59 56z" />
<glyph unicode="," horiz-adv-x="421" d="M96 -283q0 11 4 22q1 4 3 10l3 9q51 151 51 293v88q0 58 56 58q55 0 55 -58v-88q0 -178 -55 -327q-20 -56 -64 -56q-53 0 -53 49z" />
<glyph unicode="-" horiz-adv-x="897" d="M143 508q0 51 53 51h504q53 0 53 -51t-53 -51h-504q-53 0 -53 51z" />
<glyph unicode="." horiz-adv-x="479" d="M153 74q0 86 86 86t86 -86t-86 -86t-86 86z" />
<glyph unicode="/" horiz-adv-x="921" d="M133 -170q0 5 1 12l3 13l545 1591q13 39 55 39q51 0 51 -53q0 -13 -4 -25l-542 -1585q-16 -41 -56 -41q-53 0 -53 49z" />
<glyph unicode="0" horiz-adv-x="1400" d="M122 682q0 296 156 497q163 210 422 210q258 0 421 -210q156 -201 156 -497t-156 -497q-163 -210 -421 -210q-259 0 -422 210q-156 201 -156 497zM245 682q0 -254 119 -420q126 -176 336 -176q209 0 335 176q119 166 119 420t-119 420q-126 176 -335 176 q-210 0 -336 -176q-119 -166 -119 -420z" />
<glyph unicode="1" horiz-adv-x="745" d="M57 1210q0 43 47 58l358 110l19 2q59 0 59 -63v-1272q0 -61 -61 -61q-62 0 -62 61v1200l-280 -86q-17 -4 -23 -4q-57 0 -57 55z" />
<glyph unicode="2" horiz-adv-x="1284" d="M137 55q0 245 119 383q52 62 139 117q68 43 186 100q132 63 204 103q86 48 134 89q97 81 97 195q0 238 -357 238q-235 0 -407 -131q-8 -6 -14 -9q-9 -3 -19 -3q-53 0 -53 51q0 38 75 86q179 115 426 115q217 0 343 -92q128 -94 128 -257q0 -132 -94 -230 q-100 -103 -354 -222q-238 -111 -325 -202q-101 -107 -101 -280h834q53 0 53 -53t-53 -53h-906q-55 0 -55 55z" />
<glyph unicode="3" horiz-adv-x="1284" d="M112 195q0 51 57 51q20 0 37 -15q91 -73 185 -110q109 -43 239 -43q174 0 283 81q114 84 114 228q0 299 -399 299h-147q-54 0 -54 53q0 54 54 54h133q149 0 238 72q85 69 85 179q0 240 -305 240q-137 0 -276 -70q-33 -18 -56 -18q-51 0 -51 47q0 39 53 66q149 80 338 80 q192 0 306 -91t114 -245q0 -203 -233 -303q141 -25 229 -118q94 -100 94 -249q0 -182 -148 -296q-146 -112 -372 -112q-159 0 -284 47q-109 41 -209 125q-25 22 -25 48z" />
<glyph unicode="4" horiz-adv-x="1304" d="M61 436q0 21 18 39l789 879q24 26 55 26q56 0 56 -65v-828h225q53 0 53 -51t-53 -51h-225v-340q0 -61 -60 -61q-59 0 -59 61v340h-746q-53 0 -53 51zM229 487h631v703z" />
<glyph unicode="5" horiz-adv-x="1298" d="M133 193q0 53 57 53q19 0 37 -15q178 -151 424 -151q185 0 293 97q104 92 104 241q0 155 -103 245q-101 87 -267 87q-210 0 -371 -136q-20 -16 -47 -16q-64 0 -55 61l104 654q10 51 62 51h632q56 0 56 -53q0 -54 -56 -54h-587l-84 -512q127 109 350 109q219 0 352 -114 q137 -117 137 -318q0 -192 -138 -317q-144 -132 -382 -132q-307 0 -495 177q-23 22 -23 43z" />
<glyph unicode="6" horiz-adv-x="1288" d="M143 455q0 293 163 536q162 242 435 361q3 1 7 3l23 9q18 8 32 12q37 13 65 13q51 0 51 -41q0 -33 -61 -58q-261 -105 -409 -285q-128 -156 -200 -409q130 244 451 244q216 0 349 -121q130 -118 130 -301q0 -189 -131 -311q-141 -132 -381 -132q-524 0 -524 480zM270 410 q0 -154 95 -240q103 -94 306 -94q172 0 281 94q109 95 109 246q0 323 -375 323q-168 0 -290 -92q-126 -95 -126 -237z" />
<glyph unicode="7" horiz-adv-x="1136" d="M71 1311q0 53 55 53h885q64 0 64 -51q0 -19 -15 -37q-118 -152 -197 -279q-91 -145 -149 -284q-127 -305 -127 -668q0 -61 -61 -61q-62 0 -62 61q0 361 126 674q57 142 142 281q77 126 183 257h-789q-55 0 -55 54z" />
<glyph unicode="8" horiz-adv-x="1335" d="M135 379q0 142 95 242q86 92 233 131q-232 104 -232 299q0 153 125 247q122 91 311 91q190 0 312 -91q125 -94 125 -247q0 -195 -232 -299q147 -39 233 -131q95 -100 95 -242q0 -178 -141 -289q-146 -115 -392 -115q-245 0 -391 115q-141 111 -141 289zM256 381 q0 -305 411 -305q412 0 412 305q0 146 -124 232q-114 79 -288 79q-173 0 -288 -79q-123 -86 -123 -232zM348 1044q0 -109 91 -181q90 -72 228 -72t229 72t91 181q0 246 -320 246q-319 0 -319 -246z" />
<glyph unicode="9" horiz-adv-x="1286" d="M116 946q0 188 133 311q142 132 379 132q524 0 524 -480q0 -293 -163 -537q-162 -241 -435 -360q-2 -1 -7 -3l-23 -9q-18 -8 -32 -12q-37 -13 -65 -13q-51 0 -51 41q0 33 62 58q260 105 408 285q129 156 200 409q-130 -244 -451 -244q-223 0 -354 121q-125 116 -125 301z M235 948q0 -323 375 -323q167 0 289 92q126 95 126 237q0 154 -94 240q-104 94 -307 94q-172 0 -281 -95q-108 -94 -108 -245z" />
<glyph unicode=":" horiz-adv-x="479" d="M153 74q0 86 86 86t86 -86t-86 -86t-86 86zM153 680q0 86 86 86t86 -86t-86 -86t-86 86z" />
<glyph unicode=";" horiz-adv-x="468" d="M112 -283q0 10 4 22l6 19q30 76 41 150q8 57 8 143v86q0 60 58 60q57 0 57 -60v-86q0 -173 -57 -327l-9 -21l-11 -18q-16 -17 -44 -17q-53 0 -53 49zM143 680q0 86 86 86t86 -86t-86 -86t-86 86z" />
<glyph unicode="&#x3c;" horiz-adv-x="1105" d="M102 662q0 27 33 47l741 413q14 8 33 8q53 0 53 -51q0 -32 -33 -49l-680 -368l680 -369q33 -17 33 -49q0 -51 -53 -51q-19 0 -33 8l-741 413q-33 20 -33 48z" />
<glyph unicode="=" horiz-adv-x="1126" d="M174 477q0 53 57 53h664q57 0 57 -53t-57 -53h-664q-57 0 -57 53zM174 834q0 53 57 53h664q57 0 57 -53q0 -54 -57 -54h-664q-57 0 -57 54z" />
<glyph unicode="&#x3e;" horiz-adv-x="1105" d="M143 244q0 32 33 49l680 369l-680 368q-33 17 -33 49q0 51 53 51q19 0 33 -8l741 -413q33 -20 33 -47q0 -28 -33 -48l-741 -413q-14 -8 -33 -8q-53 0 -53 51z" />
<glyph unicode="?" horiz-adv-x="1007" d="M102 1227q0 28 45 57q161 105 373 105q176 0 283 -80q112 -83 112 -226q0 -159 -205 -327q-126 -103 -155 -151q-33 -53 -33 -167v-84q0 -57 -64 -57q-59 0 -59 57v82q0 144 47 220q22 35 63 73q23 22 91 78q192 161 192 276q0 195 -280 195q-163 0 -318 -92 q-9 -6 -17 -9q-10 -3 -20 -3q-55 0 -55 53zM374 74q0 86 86 86t86 -86t-86 -86t-86 86z" />
<glyph unicode="@" horiz-adv-x="1548" d="M118 696q0 303 177 494q185 199 493 199q458 0 458 -435v-540q0 -52 -51 -52t-51 52v78q-37 -60 -98 -96q-71 -42 -160 -42q-148 0 -246 101q-96 100 -96 250q0 149 96 249q98 101 246 101q89 0 160 -42q61 -36 98 -95v57q0 323 -358 323q-262 0 -417 -173 q-149 -166 -149 -429q0 -272 176 -445q189 -185 519 -185q234 0 489 104q8 4 23 4q39 0 39 -39q0 -28 -29 -41q-232 -119 -522 -119q-373 0 -591 211q-206 199 -206 510zM648 705q0 -114 67 -187q67 -74 175 -74q110 0 181 72q71 73 71 189q0 115 -71 188q-71 72 -181 72 q-108 0 -175 -74q-67 -73 -67 -186z" />
<glyph unicode="A" d="M98 39q0 12 8 29l570 1271q18 41 57 41q38 0 57 -41l570 -1271q8 -17 8 -29q0 -55 -60 -55q-39 0 -55 39l-168 374h-704l-168 -374q-16 -39 -56 -39q-59 0 -59 55zM428 506h610l-305 702z" />
<glyph unicode="B" horiz-adv-x="1325" d="M194 61v1242q0 61 61 61h465q178 0 290 -90q114 -93 114 -246q0 -209 -211 -295q139 -23 225 -111q94 -97 94 -247q0 -155 -115 -260q-128 -115 -348 -115h-514q-61 0 -61 61zM317 106h461q159 0 249 82q82 76 82 199q0 279 -337 279h-455v-560zM317 772h416 q124 0 198 74q70 68 70 170q0 241 -279 241h-405v-485z" />
<glyph unicode="C" horiz-adv-x="1443" d="M118 682q0 299 186 499q192 208 496 208q173 0 312 -75q122 -65 212 -184l12 -18q5 -12 5 -22q0 -56 -58 -56q-26 0 -43 23q-84 107 -178 158q-111 61 -262 61q-255 0 -412 -180q-147 -169 -147 -414t147 -414q157 -180 412 -180q151 0 262 61q94 51 178 158q17 23 43 23 q58 0 58 -56q0 -10 -5 -22l-12 -19q-90 -118 -212 -183q-139 -75 -312 -75q-304 0 -496 208q-186 200 -186 499z" />
<glyph unicode="D" horiz-adv-x="1417" d="M194 61v1242q0 61 61 61h390q304 0 495 -198q184 -192 184 -484t-184 -484q-191 -198 -495 -198h-390q-61 0 -61 61zM317 111h319q261 0 417 165q149 158 149 406t-149 406q-156 165 -417 165h-319v-1142z" />
<glyph unicode="E" horiz-adv-x="1193" d="M194 61v1242q0 61 61 61h789q55 0 55 -55q0 -56 -55 -56h-727v-493h422q55 0 55 -55q0 -56 -55 -56h-422v-538h729q55 0 55 -56q0 -55 -55 -55h-791q-61 0 -61 61z" />
<glyph unicode="F" horiz-adv-x="1140" d="M194 45v1258q0 61 61 61h789q55 0 55 -55q0 -56 -55 -56h-727v-493h422q55 0 55 -55q0 -56 -55 -56h-422v-604q0 -61 -62 -61q-61 0 -61 61z" />
<glyph unicode="G" horiz-adv-x="1497" d="M118 682q0 301 191 502q194 205 491 205q290 0 471 -191q16 -20 16 -43q0 -53 -55 -53q-27 0 -43 16q-164 158 -389 158q-247 0 -406 -176q-153 -170 -153 -418q0 -254 142 -421q154 -181 421 -181q272 0 447 174v303h-392q-53 0 -53 53q0 54 53 54h451q59 0 59 -58v-354 q0 -28 -16 -47q-89 -101 -226 -162q-152 -68 -327 -68q-166 0 -300 61q-124 57 -213 161q-169 198 -169 485z" />
<glyph unicode="H" horiz-adv-x="1464" d="M194 45v1274q0 61 61 61q62 0 62 -61v-567h829v567q0 61 62 61q61 0 61 -61v-1274q0 -61 -61 -61q-62 0 -62 61v594h-829v-594q0 -61 -62 -61q-61 0 -61 61z" />
<glyph unicode="I" horiz-adv-x="532" d="M204 45v1274q0 61 61 61q62 0 62 -61v-1274q0 -61 -62 -61q-61 0 -61 61z" />
<glyph unicode="J" horiz-adv-x="1210" d="M71 375q0 59 59 59q46 0 56 -49q68 -301 352 -301q364 0 364 424v811q0 61 62 61q61 0 61 -61v-807q0 -241 -117 -383q-128 -154 -368 -154q-189 0 -311 104q-112 96 -154 267q-4 16 -4 29z" />
<glyph unicode="K" horiz-adv-x="1353" d="M194 45v1274q0 61 61 61q62 0 62 -61v-735l792 780q17 16 41 16q60 0 60 -53q0 -27 -19 -45l-450 -442l487 -764q13 -22 13 -37q0 -55 -60 -55q-33 0 -51 28l-475 746l-338 -332v-381q0 -61 -62 -61q-61 0 -61 61z" />
<glyph unicode="L" horiz-adv-x="1177" d="M194 61v1258q0 61 61 61q62 0 62 -61v-1208h733q55 0 55 -56q0 -55 -55 -55h-795q-61 0 -61 61z" />
<glyph unicode="M" horiz-adv-x="1732" d="M194 43v1278q0 59 59 59q38 0 58 -39l555 -1185l555 1185q19 39 57 39q59 0 59 -59v-1278q0 -59 -59 -59q-57 0 -57 59v1044l-498 -1067q-17 -36 -57 -36q-41 0 -58 36l-497 1067v-1044q0 -59 -58 -59q-59 0 -59 59z" />
<glyph unicode="N" horiz-adv-x="1480" d="M194 41v1280q0 59 61 59q29 0 48 -26l866 -1147v1114q0 59 59 59q58 0 58 -59v-1280q0 -57 -60 -57q-27 0 -47 26l-868 1145v-1114q0 -57 -58 -57q-59 0 -59 57z" />
<glyph unicode="O" horiz-adv-x="1585" d="M106 682q0 293 190 496q198 211 498 211t496 -211q188 -203 188 -496t-188 -496q-196 -211 -496 -211t-498 211q-190 203 -190 496zM229 682q0 -246 150 -417q160 -181 415 -181q254 0 413 181q148 171 148 417t-148 416q-159 182 -413 182q-255 0 -415 -182 q-150 -170 -150 -416z" />
<glyph unicode="P" horiz-adv-x="1284" d="M194 45v1258q0 61 61 61h547q197 0 312 -110q108 -105 108 -273t-108 -273q-115 -110 -312 -110h-485v-553q0 -61 -62 -61q-61 0 -61 61zM317 709h510q125 0 200 77q72 76 72 195t-72 195q-75 77 -200 77h-510v-544z" />
<glyph unicode="Q" horiz-adv-x="1585" d="M106 682q0 293 190 496q198 211 498 211t496 -211q188 -203 188 -496q0 -376 -285 -582l154 -264q2 -7 2 -14q0 -51 -55 -51q-29 0 -47 28l-146 246q-139 -70 -307 -70q-300 0 -498 211q-190 203 -190 496zM229 682q0 -246 150 -417q160 -181 415 -181q135 0 252 55 l-123 214q-4 8 -4 18q0 51 55 51q31 0 45 -27l117 -198q219 174 219 485q0 246 -148 416q-159 182 -413 182q-255 0 -415 -182q-150 -170 -150 -416z" />
<glyph unicode="R" horiz-adv-x="1402" d="M194 45v1258q0 61 61 61h588q198 0 312 -108q108 -103 108 -271q0 -312 -309 -369l266 -544q8 -17 8 -29q0 -59 -59 -59q-39 0 -57 34l-289 588h-506v-561q0 -61 -62 -61q-61 0 -61 61zM317 717h551q272 0 272 268t-272 268h-551v-536z" />
<glyph unicode="S" horiz-adv-x="1298" d="M133 197q0 49 51 49q24 0 49 -19q92 -64 187 -99q123 -46 256 -46q387 0 387 252q0 109 -107 181q-48 31 -124 61q-62 25 -162 55q-289 87 -406 191q-102 89 -102 218q0 170 151 264q138 85 357 85q248 0 440 -132q29 -19 29 -43q0 -53 -56 -53q-15 0 -32 10 q-181 111 -383 111q-171 0 -272 -57q-111 -63 -111 -185q0 -172 387 -299l216 -76q101 -40 161 -80q137 -91 137 -247q0 -166 -136 -264q-137 -99 -372 -99q-147 0 -287 49q-130 44 -229 121q-29 26 -29 52z" />
<glyph unicode="T" horiz-adv-x="1191" d="M36 1309q0 55 55 55h1008q55 0 55 -55q0 -56 -55 -56h-442v-1208q0 -61 -62 -61q-61 0 -61 61v1208h-443q-55 0 -55 56z" />
<glyph unicode="U" horiz-adv-x="1511" d="M180 537v782q0 61 61 61q62 0 62 -61v-791q0 -208 108 -322q116 -122 344 -122q229 0 345 122q108 114 108 322v791q0 61 62 61q61 0 61 -61v-782q0 -258 -154 -409q-155 -153 -422 -153q-266 0 -421 153q-154 151 -154 409z" />
<glyph unicode="V" horiz-adv-x="1249" d="M20 1327q0 53 57 53q37 0 52 -32l495 -1168l496 1168q15 32 51 32q57 0 57 -53q0 -13 -6 -29l-543 -1275q-17 -39 -55 -39q-37 0 -55 39l-543 1275q-6 16 -6 29z" />
<glyph unicode="W" horiz-adv-x="1933" d="M40 1325q0 55 57 55q40 0 54 -43l374 -1130l385 1130q14 43 56 43t55 -43l385 -1130l375 1130q13 43 53 43q57 0 57 -55q0 -8 -4 -25l-426 -1277q-14 -39 -55 -39q-42 0 -55 39l-385 1134l-385 -1134q-13 -39 -56 -39q-41 0 -55 39l-426 1277q-4 17 -4 25z" />
<glyph unicode="X" horiz-adv-x="1310" d="M102 35q0 18 12 37l473 614l-467 606q-12 19 -12 35q0 53 55 53q28 0 48 -22l444 -576l444 576q20 22 47 22q56 0 56 -53q0 -16 -13 -35l-466 -606l473 -614q12 -19 12 -37q0 -51 -51 -51q-19 0 -32 6q-11 6 -19 16l-451 584l-451 -584q-8 -10 -19 -16q-13 -6 -32 -6 q-51 0 -51 51z" />
<glyph unicode="Y" horiz-adv-x="1130" d="M10 1325q0 55 55 55q33 0 54 -28l446 -639l446 639q21 28 54 28q55 0 55 -55q0 -16 -12 -35l-482 -692v-553q0 -61 -61 -61t-61 61v553l-482 692q-12 19 -12 35z" />
<glyph unicode="Z" horiz-adv-x="1304" d="M163 53q0 18 14 39l822 1165h-770q-56 0 -56 54q0 53 56 53h874q57 0 57 -53q0 -22 -16 -41l-815 -1164h792q56 0 56 -53t-56 -53h-899q-59 0 -59 53z" />
<glyph unicode="[" horiz-adv-x="700" d="M215 -246v1589q0 62 57 62h262q54 0 54 -53q0 -54 -54 -54h-196v-1497h196q54 0 54 -53t-54 -53h-262q-57 0 -57 59z" />
<glyph unicode="\" horiz-adv-x="921" d="M133 1432q0 53 53 53q41 0 56 -43l542 -1587l3 -13q1 -7 1 -12q0 -49 -53 -49q-39 0 -55 41l-543 1585q-4 12 -4 25z" />
<glyph unicode="]" horiz-adv-x="700" d="M112 -252q0 53 53 53h197v1497h-197q-53 0 -53 54q0 53 53 53h262q58 0 58 -62v-1589q0 -59 -58 -59h-262q-53 0 -53 53z" />
<glyph unicode="^" horiz-adv-x="958" d="M112 772q0 12 8 29l311 549q19 30 48 30q28 0 47 -30l311 -549q8 -17 8 -29q0 -49 -53 -49q-27 0 -45 29l-268 479l-269 -479q-18 -29 -45 -29q-53 0 -53 49z" />
<glyph unicode="_" horiz-adv-x="897" d="M-2 -27h901v-63h-901v63z" />
<glyph unicode="`" horiz-adv-x="673" d="M204 1315q0 47 51 47q28 0 43 -23l148 -209q12 -18 12 -32q0 -49 -49 -49q-30 0 -51 32l-142 199q-5 8 -8 14q-4 10 -4 21z" />
<glyph unicode="a" horiz-adv-x="1056" d="M116 244q0 123 103 197q103 75 274 75q94 0 175 -34q73 -31 112 -76v120q0 283 -297 283q-123 0 -252 -53l-12 -4q-9 -2 -17 -2q-53 0 -53 51q0 29 30 45q132 67 314 67q409 0 409 -385v-483q0 -61 -61 -61t-61 61v45q-103 -115 -306 -115q-162 0 -261 77q-97 75 -97 192 zM239 244q0 -178 254 -178q116 0 199 48q88 51 88 130q0 80 -87 132q-81 48 -192 48q-262 0 -262 -180z" />
<glyph unicode="b" horiz-adv-x="1208" d="M163 45v1274q0 61 61 61q62 0 62 -61v-594q125 188 366 188q190 0 318 -132q131 -134 131 -337q0 -202 -131 -336q-128 -133 -318 -133q-241 0 -366 189v-119q0 -61 -62 -61q-61 0 -61 61zM286 444q0 -153 95 -256q98 -108 253 -108q153 0 249 102q95 102 95 262 q0 161 -95 263q-96 102 -249 102q-155 0 -253 -108q-95 -104 -95 -257z" />
<glyph unicode="c" horiz-adv-x="1038" d="M108 444q0 202 134 336q134 133 335 133q120 0 220 -51q91 -47 140 -121q13 -18 13 -36q0 -52 -60 -52q-13 0 -25 8q-8 5 -18 17q-108 129 -270 129q-149 0 -248 -106q-98 -104 -98 -257q0 -152 98 -256q99 -106 248 -106q162 0 270 129q10 11 18 17q12 8 25 8 q60 0 60 -52q0 -18 -13 -37q-49 -73 -140 -120q-100 -52 -220 -52q-201 0 -335 134t-134 335z" />
<glyph unicode="d" horiz-adv-x="1208" d="M106 444q0 203 131 337q128 132 318 132q240 0 366 -188v594q0 61 62 61q61 0 61 -61v-1274q0 -61 -61 -61q-62 0 -62 61v119q-126 -189 -366 -189q-190 0 -318 133q-131 134 -131 336zM229 444q0 -160 95 -262q96 -102 249 -102q155 0 253 108q95 103 95 256t-95 257 q-98 108 -253 108q-153 0 -249 -102q-95 -102 -95 -263z" />
<glyph unicode="e" horiz-adv-x="1101" d="M106 444q0 193 127 329q132 140 330 140q188 0 309 -131q121 -130 121 -327q0 -52 -51 -52h-711q5 -131 94 -223q97 -100 250 -100q170 0 279 129q9 12 18 18q14 9 29 9q51 0 51 -52q0 -18 -12 -37q-125 -172 -365 -172q-212 0 -344 142q-125 133 -125 327zM235 506h645 q-12 131 -99 217q-89 88 -218 88q-133 0 -226 -90q-89 -86 -102 -215z" />
<glyph unicode="f" horiz-adv-x="657" d="M24 838q0 51 51 51h144v127q0 348 327 348h43q51 0 51 -51t-51 -51h-37q-211 0 -211 -244v-129h234q51 0 51 -51q0 -52 -51 -52h-234v-741q0 -61 -61 -61t-61 61v741h-144q-51 0 -51 52z" />
<glyph unicode="g" horiz-adv-x="1208" d="M106 459q0 203 134 331q128 123 321 123q125 0 228 -61q86 -51 132 -127v119q0 61 62 61q61 0 61 -61v-772q0 -217 -113 -340q-121 -131 -358 -131q-112 0 -212 27q-86 24 -153 65q-36 20 -36 53q0 45 47 45q20 0 53 -16q137 -74 301 -74q181 0 269 103q79 92 79 259v130 q-116 -189 -360 -189q-193 0 -321 124q-134 128 -134 331zM227 459q0 -161 96 -258q95 -97 250 -97q146 0 248 105q100 104 100 250q0 145 -100 249q-102 105 -248 105q-155 0 -250 -96q-96 -98 -96 -258z" />
<glyph unicode="h" horiz-adv-x="1157" d="M163 45v1274q0 61 61 61q62 0 62 -61v-582q102 176 334 176q175 0 280 -116q103 -114 103 -295v-457q0 -61 -62 -61q-61 0 -61 61v455q0 301 -287 301q-133 0 -219 -89q-88 -91 -88 -239v-428q0 -61 -62 -61q-61 0 -61 61z" />
<glyph unicode="i" horiz-adv-x="450" d="M147 1159q0 78 78 78t78 -78t-78 -78t-78 78zM163 45v799q0 61 62 61q61 0 61 -61v-799q0 -61 -61 -61q-62 0 -62 61z" />
<glyph unicode="j" horiz-adv-x="450" d="M-88 -348q0 51 51 51h25q109 0 145 51q31 42 31 158v932q0 61 61 61q62 0 62 -61v-940q0 -303 -289 -303h-35q-51 0 -51 51zM148 1159q0 78 77 78q78 0 78 -78t-78 -78q-77 0 -77 78z" />
<glyph unicode="k" horiz-adv-x="983" d="M163 45v1274q0 61 61 61q62 0 62 -61v-827l500 397q19 16 41 16q55 0 55 -55q0 -24 -29 -47l-342 -271l373 -454q16 -22 16 -39q0 -55 -61 -55q-22 0 -43 24l-373 455l-137 -111v-307q0 -61 -62 -61q-61 0 -61 61z" />
<glyph unicode="l" horiz-adv-x="450" d="M163 45v1274q0 61 61 61q62 0 62 -61v-1274q0 -61 -62 -61q-61 0 -61 61z" />
<glyph unicode="m" horiz-adv-x="1849" d="M163 45v799q0 61 61 61q62 0 62 -61v-107q102 176 326 176q243 0 339 -206q119 206 365 206q175 0 279 -116q100 -113 100 -295v-457q0 -61 -62 -61q-61 0 -61 61v455q0 301 -283 301q-132 0 -214 -89q-85 -90 -85 -239v-428q0 -61 -61 -61t-61 61v455q0 301 -283 301 q-132 0 -215 -89q-84 -90 -84 -239v-428q0 -61 -62 -61q-61 0 -61 61z" />
<glyph unicode="n" horiz-adv-x="1157" d="M163 45v799q0 61 61 61q62 0 62 -61v-107q102 176 334 176q175 0 280 -116q103 -114 103 -295v-457q0 -61 -62 -61q-61 0 -61 61v455q0 301 -287 301q-133 0 -219 -89q-88 -91 -88 -239v-428q0 -61 -62 -61q-61 0 -61 61z" />
<glyph unicode="o" horiz-adv-x="1146" d="M106 444q0 198 131 332q133 137 336 137t336 -137q131 -134 131 -332q0 -197 -131 -332q-133 -137 -336 -137t-336 137q-131 135 -131 332zM229 444q0 -155 100 -259q99 -103 244 -103t244 103q100 104 100 259q0 156 -100 260q-99 103 -244 103t-244 -103 q-100 -104 -100 -260z" />
<glyph unicode="p" horiz-adv-x="1208" d="M163 -338v1182q0 61 61 61q62 0 62 -61v-119q125 188 366 188q190 0 318 -132q131 -134 131 -337q0 -202 -131 -336q-128 -133 -318 -133q-241 0 -366 189v-502q0 -61 -62 -61q-61 0 -61 61zM286 444q0 -153 95 -256q98 -108 253 -108q153 0 249 102q95 102 95 262 q0 161 -95 263q-96 102 -249 102q-155 0 -253 -108q-95 -104 -95 -257z" />
<glyph unicode="q" horiz-adv-x="1208" d="M106 444q0 203 131 337q128 132 318 132q240 0 366 -188v119q0 61 62 61q61 0 61 -61v-1182q0 -61 -61 -61q-62 0 -62 61v502q-126 -189 -366 -189q-190 0 -318 133q-131 134 -131 336zM229 444q0 -160 95 -262q96 -102 249 -102q155 0 253 108q95 103 95 256t-95 257 q-98 108 -253 108q-153 0 -249 -102q-95 -102 -95 -263z" />
<glyph unicode="r" horiz-adv-x="673" d="M163 45v799q0 61 61 61q62 0 62 -61v-144q68 205 295 205q61 0 61 -53q0 -55 -61 -55q-131 0 -214 -113q-81 -111 -81 -285v-354q0 -61 -62 -61q-61 0 -61 61z" />
<glyph unicode="s" horiz-adv-x="958" d="M133 139q0 45 47 45q14 0 27 -5q10 -4 20 -13q122 -96 281 -96q229 0 229 147q0 69 -68 110q-29 17 -75 32q-19 7 -45 14l-47 14q-199 55 -282 124q-77 65 -77 165q0 237 352 237q146 0 277 -71q55 -28 55 -62q0 -47 -51 -47q-16 0 -49 19q-116 61 -234 61 q-231 0 -231 -133q0 -111 250 -182q89 -26 139 -46q67 -25 109 -53q96 -65 96 -176q0 -248 -354 -248q-205 0 -344 117q-25 19 -25 47z" />
<glyph unicode="t" horiz-adv-x="661" d="M36 838q0 51 51 51h182v287q0 61 62 61q61 0 61 -61v-287h207q51 0 51 -51q0 -52 -51 -52h-207v-741q0 -61 -61 -61q-62 0 -62 61v741h-182q-51 0 -51 52z" />
<glyph unicode="u" horiz-adv-x="1157" d="M153 387v457q0 61 61 61q62 0 62 -61v-455q0 -301 287 -301q133 0 218 89q89 91 89 239v428q0 61 61 61q62 0 62 -61v-799q0 -61 -62 -61q-61 0 -61 61v107q-103 -177 -334 -177q-175 0 -281 117q-102 114 -102 295z" />
<glyph unicode="v" horiz-adv-x="897" d="M30 850q0 55 57 55q38 0 54 -37l307 -694l307 694q15 37 53 37q58 0 58 -55q0 -14 -9 -31l-358 -801q-17 -34 -51 -34t-51 34l-359 801q-8 17 -8 31z" />
<glyph unicode="w" horiz-adv-x="1318" d="M36 852q0 53 57 53q38 0 52 -41l223 -682l239 684q15 39 52 39t51 -39l239 -684l224 682q13 41 51 41q57 0 57 -53q0 -5 -1 -12l-3 -13l-270 -807q-14 -36 -56 -36t-55 39l-237 675l-238 -675q-13 -39 -55 -39t-56 36l-270 807l-3 13q-1 7 -1 12z" />
<glyph unicode="x" horiz-adv-x="958" d="M92 37q0 18 12 37l305 372l-299 369l-10 17q-4 9 -4 20q0 53 57 53q27 0 43 -22l283 -355l283 355q17 22 43 22q57 0 57 -53q0 -11 -4 -20l-10 -17l-299 -369l305 -372q12 -19 12 -37q0 -53 -55 -53q-26 0 -43 20l-289 361l-289 -361q-17 -20 -43 -20q-55 0 -55 53z" />
<glyph unicode="y" horiz-adv-x="886" d="M26 850q0 55 57 55q37 0 54 -39l309 -729l303 733q14 35 51 35q55 0 55 -55q0 -11 -6 -27l-301 -729q-64 -153 -157 -272q-104 -134 -234 -211q-17 -10 -37 -10q-53 0 -53 51q0 30 37 51q171 119 278 303l-353 829q-3 8 -3 15z" />
<glyph unicode="z" horiz-adv-x="956" d="M122 49q0 11 4 21q3 7 10 18l559 703h-520q-51 0 -51 49t51 49h631q51 0 51 -49q0 -19 -12 -37l-561 -705h528q51 0 51 -49t-51 -49h-639q-51 0 -51 49z" />
<glyph unicode="{" horiz-adv-x="710" d="M92 543q0 53 55 53h17q145 0 145 145v476q0 188 180 188h88q52 0 52 -53q0 -54 -52 -54h-69q-76 0 -76 -79v-455q0 -203 -174 -221q174 -19 174 -221v-455q0 -80 76 -80h69q52 0 52 -53t-52 -53h-88q-180 0 -180 188v475q0 145 -145 145h-17q-55 0 -55 54z" />
<glyph unicode="|" horiz-adv-x="569" d="M235 -356v1812q0 49 49 49t49 -49v-1812q0 -50 -49 -50t-49 50z" />
<glyph unicode="}" horiz-adv-x="710" d="M81 -266q0 53 51 53h70q76 0 76 80v455q0 202 174 221q-174 18 -174 221v455q0 79 -76 79h-70q-51 0 -51 54q0 53 51 53h88q180 0 180 -188v-476q0 -145 146 -145h16q56 0 56 -53q0 -54 -56 -54h-16q-146 0 -146 -145v-475q0 -188 -180 -188h-88q-51 0 -51 53z" />
<glyph unicode="~" horiz-adv-x="1040" d="M122 469q0 15 8 29q43 71 94 109q61 44 136 44q74 0 186 -61q117 -64 158 -64q68 0 147 101q18 24 41 24q45 0 45 -43q0 -17 -8 -28q-48 -72 -99 -109q-61 -45 -133 -45q-40 0 -85 18l-103 50q-118 57 -151 57q-72 0 -150 -100q-18 -25 -41 -25q-45 0 -45 43z" />
<glyph unicode="&#xa8;" horiz-adv-x="1024" />
<glyph unicode="&#xa9;" horiz-adv-x="1650" d="M118 682q0 295 200 499q203 208 507 208q303 0 506 -208q200 -204 200 -499t-200 -499q-203 -208 -506 -208q-304 0 -507 208q-200 204 -200 499zM216 682q0 -259 167 -435q173 -184 442 -184q268 0 441 184q167 176 167 435q0 258 -167 435q-173 183 -441 183 q-269 0 -442 -183q-167 -177 -167 -435zM507 682q0 150 93 247q96 101 253 101q166 0 266 -129q13 -15 13 -35q0 -47 -49 -47q-26 0 -45 23q-75 92 -185 92t-176 -74q-63 -70 -63 -178t63 -178q66 -74 176 -74t185 92q19 23 45 23q49 0 49 -47q0 -20 -13 -35 q-100 -129 -266 -129q-157 0 -253 101q-93 97 -93 247z" />
<glyph unicode="&#xad;" horiz-adv-x="897" d="M143 508q0 51 53 51h504q53 0 53 -51t-53 -51h-504q-53 0 -53 51z" />
<glyph unicode="&#xae;" horiz-adv-x="851" d="M81 1049q0 144 97 241q98 99 247 99t247 -99q97 -97 97 -241q0 -143 -97 -241q-98 -99 -247 -99t-247 99q-97 98 -97 241zM142 1049q0 -120 75 -199q79 -84 208 -84t208 84q75 79 75 199q0 119 -75 198q-79 84 -208 84t-208 -84q-75 -79 -75 -198zM319 899v305 q0 31 30 31h88q127 0 127 -111q0 -75 -63 -102l65 -104q4 -9 4 -17q0 -9 -9 -18t-21 -9q-18 0 -29 19l-70 119h-63v-113q0 -10 -8 -18q-9 -9 -21 -9t-21 9t-9 18zM378 1067h65q60 0 60 57q0 56 -60 56h-65v-113z" />
<glyph unicode="&#xb4;" horiz-adv-x="1024" />
<glyph unicode="&#xc0;" d="M98 39q0 12 8 29l570 1271q18 41 57 41q38 0 57 -41l570 -1271q8 -17 8 -29q0 -55 -60 -55q-39 0 -55 39l-168 374h-704l-168 -374q-16 -39 -56 -39q-59 0 -59 55zM428 506h610l-305 702zM542 1671q0 47 52 47q14 0 28 -7q12 -7 21 -17l112 -127q17 -20 17 -39 q0 -47 -51 -47q-24 0 -50 28l-112 121q-17 19 -17 41z" />
<glyph unicode="&#xc1;" d="M98 39q0 12 8 29l570 1271q18 41 57 41q38 0 57 -41l570 -1271q8 -17 8 -29q0 -55 -60 -55q-39 0 -55 39l-168 374h-704l-168 -374q-16 -39 -56 -39q-59 0 -59 55zM428 506h610l-305 702zM676 1528q0 19 16 39l113 127q8 10 20 17q14 7 29 7q51 0 51 -47q0 -22 -16 -41 l-113 -121q-26 -28 -49 -28q-51 0 -51 47z" />
<glyph unicode="&#xc2;" d="M98 39q0 12 8 29l570 1271q18 41 57 41q38 0 57 -41l570 -1271q8 -17 8 -29q0 -55 -60 -55q-39 0 -55 39l-168 374h-704l-168 -374q-16 -39 -56 -39q-59 0 -59 55zM428 506h610l-305 702zM487 1522q0 13 5 23q4 6 14 16l186 141q23 16 39 16t39 -16l186 -141 q10 -10 13 -16q6 -10 6 -23q0 -41 -48 -41q-17 0 -32 12l-164 117l-164 -117q-15 -12 -33 -12q-47 0 -47 41z" />
<glyph unicode="&#xc3;" d="M98 39q0 12 8 29l570 1271q18 41 57 41q38 0 57 -41l570 -1271q8 -17 8 -29q0 -55 -60 -55q-39 0 -55 39l-168 374h-704l-168 -374q-16 -39 -56 -39q-59 0 -59 55zM428 506h610l-305 702zM452 1530q0 17 13 33l20 26q61 76 152 76q52 0 104 -29l62 -35q29 -16 49 -16 q28 0 71 43l21 21q9 8 15 12q10 6 24 6q47 0 47 -41q0 -19 -12 -35l-19 -22q-4 -5 -6 -8q-65 -72 -139 -72q-45 0 -121 43q-67 37 -96 37q-42 0 -76 -39l-23 -25q-8 -8 -15 -12q-10 -6 -24 -6q-47 0 -47 43z" />
<glyph unicode="&#xc8;" horiz-adv-x="1193" d="M194 61v1242q0 61 61 61h789q55 0 55 -55q0 -56 -55 -56h-727v-493h422q55 0 55 -55q0 -56 -55 -56h-422v-538h729q55 0 55 -56q0 -55 -55 -55h-791q-61 0 -61 61zM489 1671q0 47 51 47q14 0 29 -7q12 -7 20 -17l113 -127q16 -20 16 -39q0 -47 -51 -47q-23 0 -49 28 l-113 121q-16 19 -16 41z" />
<glyph unicode="&#xc9;" horiz-adv-x="1193" d="M194 61v1242q0 61 61 61h789q55 0 55 -55q0 -56 -55 -56h-727v-493h422q55 0 55 -55q0 -56 -55 -56h-422v-538h729q55 0 55 -56q0 -55 -55 -55h-791q-61 0 -61 61zM569 1528q0 19 16 39l113 127q8 10 21 17q14 7 28 7q51 0 51 -47q0 -22 -16 -41l-113 -121 q-26 -28 -49 -28q-51 0 -51 47z" />
<glyph unicode="&#xca;" horiz-adv-x="1193" d="M194 61v1242q0 61 61 61h789q55 0 55 -55q0 -56 -55 -56h-727v-493h422q55 0 55 -55q0 -56 -55 -56h-422v-538h729q55 0 55 -56q0 -55 -55 -55h-791q-61 0 -61 61zM407 1522q0 13 5 23q4 6 13 16l187 141q23 16 39 16t39 -16l186 -141q10 -10 13 -16q5 -10 5 -23 q0 -41 -47 -41q-17 0 -32 12l-164 117l-164 -117q-15 -12 -33 -12q-47 0 -47 41z" />
<glyph unicode="&#xcc;" horiz-adv-x="532" d="M98 1671q0 47 51 47q15 0 29 -7q12 -7 20 -17l113 -127q16 -20 16 -39q0 -47 -51 -47q-23 0 -49 28l-113 121q-16 19 -16 41zM204 45v1274q0 61 62 61q61 0 61 -61v-1274q0 -61 -61 -61q-62 0 -62 61z" />
<glyph unicode="&#xcd;" horiz-adv-x="532" d="M202 1528q0 19 16 39l113 127q9 10 21 17q14 7 28 7q51 0 51 -47q0 -22 -16 -41l-113 -121q-25 -28 -49 -28q-51 0 -51 47zM204 45v1274q0 61 61 61q62 0 62 -61v-1274q0 -61 -62 -61q-61 0 -61 61z" />
<glyph unicode="&#xd2;" horiz-adv-x="1609" d="M118 682q0 293 190 496q198 211 498 211t496 -211q188 -203 188 -496t-188 -496q-196 -211 -496 -211t-498 211q-190 203 -190 496zM241 682q0 -246 150 -417q160 -181 415 -181q254 0 413 181q148 171 148 417t-148 416q-159 182 -413 182q-255 0 -415 -182 q-150 -170 -150 -416zM636 1671q0 47 51 47q15 0 29 -7q12 -7 20 -17l113 -127q17 -20 17 -39q0 -47 -52 -47q-23 0 -49 28l-112 121q-17 19 -17 41z" />
<glyph unicode="&#xd3;" horiz-adv-x="1585" d="M106 682q0 293 190 496q198 211 498 211t496 -211q188 -203 188 -496t-188 -496q-196 -211 -496 -211t-498 211q-190 203 -190 496zM229 682q0 -246 150 -417q160 -181 415 -181q254 0 413 181q148 171 148 417t-148 416q-159 182 -413 182q-255 0 -415 -182 q-150 -170 -150 -416zM729 1528q0 19 16 39l113 127q8 10 20 17q14 7 29 7q51 0 51 -47q0 -22 -16 -41l-113 -121q-26 -28 -49 -28q-51 0 -51 47z" />
<glyph unicode="&#xd4;" horiz-adv-x="1585" d="M106 682q0 293 190 496q198 211 498 211t496 -211q188 -203 188 -496t-188 -496q-196 -211 -496 -211t-498 211q-190 203 -190 496zM229 682q0 -246 150 -417q160 -181 415 -181q254 0 413 181q148 171 148 417t-148 416q-159 182 -413 182q-255 0 -415 -182 q-150 -170 -150 -416zM550 1522q0 13 6 23q3 6 13 16l186 141q23 16 39 16t39 -16l186 -141q10 -10 13 -16q6 -10 6 -23q0 -41 -47 -41q-18 0 -33 12l-164 117l-164 -117q-15 -12 -32 -12q-48 0 -48 41z" />
<glyph unicode="&#xd5;" horiz-adv-x="1585" d="M106 682q0 293 190 496q198 211 498 211t496 -211q188 -203 188 -496t-188 -496q-196 -211 -496 -211t-498 211q-190 203 -190 496zM229 682q0 -246 150 -417q160 -181 415 -181q254 0 413 181q148 171 148 417t-148 416q-159 182 -413 182q-255 0 -415 -182 q-150 -170 -150 -416zM509 1530q0 17 13 33l20 26q61 76 152 76q53 0 104 -29l62 -35q30 -16 49 -16q28 0 71 43l21 21q9 8 15 12q10 6 24 6q47 0 47 -41q0 -19 -12 -35l-25 -30q-64 -72 -139 -72q-45 0 -121 43q-67 37 -96 37q-42 0 -76 -39l-23 -25q-8 -8 -14 -12 q-11 -6 -24 -6q-48 0 -48 43z" />
<glyph unicode="&#xd9;" horiz-adv-x="1523" d="M186 537v782q0 61 61 61q62 0 62 -61v-791q0 -208 108 -322q116 -122 344 -122q229 0 345 122q108 114 108 322v791q0 61 62 61q61 0 61 -61v-782q0 -258 -154 -409q-155 -153 -422 -153q-266 0 -421 153q-154 151 -154 409zM608 1671q0 47 51 47q14 0 29 -7 q12 -7 20 -17l113 -127q16 -20 16 -39q0 -47 -51 -47q-23 0 -49 28l-113 121q-16 19 -16 41z" />
<glyph unicode="&#xda;" horiz-adv-x="1523" d="M186 537v782q0 61 61 61q62 0 62 -61v-791q0 -208 108 -322q116 -122 344 -122q229 0 345 122q108 114 108 322v791q0 61 62 61q61 0 61 -61v-782q0 -258 -154 -409q-155 -153 -422 -153q-266 0 -421 153q-154 151 -154 409zM680 1528q0 19 16 39l113 127q8 10 20 17 q14 7 29 7q51 0 51 -47q0 -22 -16 -41l-113 -121q-26 -28 -49 -28q-51 0 -51 47z" />
<glyph unicode="&#xdd;" horiz-adv-x="1130" d="M10 1325q0 55 55 55q33 0 54 -28l446 -639l446 639q21 28 54 28q55 0 55 -55q0 -16 -12 -35l-482 -692v-553q0 -61 -61 -61t-61 61v553l-482 692q-12 19 -12 35zM528 1528q0 19 16 39l113 127q8 10 20 17q15 7 29 7q51 0 51 -47q0 -22 -16 -41l-113 -121q-26 -28 -49 -28 q-51 0 -51 47z" />
<glyph unicode="&#xe0;" horiz-adv-x="1056" d="M116 244q0 123 103 197q103 75 274 75q94 0 175 -34q73 -31 112 -76v120q0 283 -297 283q-123 0 -252 -53l-12 -4q-9 -2 -17 -2q-53 0 -53 51q0 29 30 45q132 67 314 67q409 0 409 -385v-483q0 -61 -61 -61t-61 61v45q-103 -115 -306 -115q-162 0 -261 77q-97 75 -97 192 zM239 244q0 -178 254 -178q116 0 199 48q88 51 88 130q0 80 -87 132q-81 48 -192 48q-262 0 -262 -180zM331 1315q0 47 51 47q28 0 43 -23l148 -209q12 -18 12 -32q0 -49 -49 -49q-30 0 -51 32l-142 199q-5 8 -8 14q-4 10 -4 21z" />
<glyph unicode="&#xe1;" horiz-adv-x="1056" d="M116 244q0 123 103 197q103 75 274 75q94 0 175 -34q73 -31 112 -76v120q0 283 -297 283q-123 0 -252 -53l-12 -4q-9 -2 -17 -2q-53 0 -53 51q0 29 30 45q132 67 314 67q409 0 409 -385v-483q0 -61 -61 -61t-61 61v45q-103 -115 -306 -115q-162 0 -261 77q-97 75 -97 192 zM239 244q0 -178 254 -178q116 0 199 48q88 51 88 130q0 80 -87 132q-81 48 -192 48q-262 0 -262 -180zM442 1098q0 14 12 32l147 209q15 23 43 23q52 0 52 -47q0 -11 -4 -21q-3 -6 -9 -14l-141 -199q-25 -32 -51 -32q-49 0 -49 49z" />
<glyph unicode="&#xe2;" horiz-adv-x="1056" d="M116 244q0 123 103 197q103 75 274 75q94 0 175 -34q73 -31 112 -76v120q0 283 -297 283q-123 0 -252 -53l-12 -4q-9 -2 -17 -2q-53 0 -53 51q0 29 30 45q132 67 314 67q409 0 409 -385v-483q0 -61 -61 -61t-61 61v45q-103 -115 -306 -115q-162 0 -261 77q-97 75 -97 192 zM239 244q0 -178 254 -178q116 0 199 48q88 51 88 130q0 80 -87 132q-81 48 -192 48q-262 0 -262 -180zM268 1087q0 14 5 24q3 6 13 15l195 181q16 16 38 16q23 0 39 -16l195 -181q10 -9 13 -15q5 -10 5 -24q0 -40 -47 -40q-17 0 -33 12l-172 151l-172 -151q-15 -12 -32 -12 q-47 0 -47 40z" />
<glyph unicode="&#xe3;" horiz-adv-x="1056" d="M116 244q0 123 103 197q103 75 274 75q94 0 175 -34q73 -31 112 -76v120q0 283 -297 283q-123 0 -252 -53l-12 -4q-9 -2 -17 -2q-53 0 -53 51q0 29 30 45q132 67 314 67q409 0 409 -385v-483q0 -61 -61 -61t-61 61v45q-103 -115 -306 -115q-162 0 -261 77q-97 75 -97 192 zM229 1104q0 17 12 33l20 26q61 76 152 76q53 0 104 -29l63 -35q29 -16 48 -16q29 0 72 43l20 21q9 8 15 12q11 6 24 6q47 0 47 -41q0 -19 -12 -35l-25 -30q-64 -72 -139 -72q-45 0 -121 43q-67 37 -96 37q-42 0 -76 -39l-22 -25q-9 -8 -15 -12q-11 -6 -24 -6q-47 0 -47 43z M239 244q0 -178 254 -178q116 0 199 48q88 51 88 130q0 80 -87 132q-81 48 -192 48q-262 0 -262 -180z" />
<glyph unicode="&#xe8;" horiz-adv-x="1101" d="M106 444q0 193 127 329q132 140 330 140q188 0 309 -131q121 -130 121 -327q0 -52 -51 -52h-711q5 -131 94 -223q97 -100 250 -100q170 0 279 129q9 12 18 18q14 9 29 9q51 0 51 -52q0 -18 -12 -37q-125 -172 -365 -172q-212 0 -344 142q-125 133 -125 327zM235 506h645 q-12 131 -99 217q-89 88 -218 88q-133 0 -226 -90q-89 -86 -102 -215zM382 1315q0 47 52 47q28 0 43 -23l147 -209q12 -18 12 -32q0 -49 -49 -49q-29 0 -51 32l-141 199q-6 8 -9 14q-4 10 -4 21z" />
<glyph unicode="&#xe9;" horiz-adv-x="1101" d="M106 444q0 193 127 329q132 140 330 140q188 0 309 -131q121 -130 121 -327q0 -52 -51 -52h-711q5 -131 94 -223q97 -100 250 -100q170 0 279 129q9 12 18 18q14 9 29 9q51 0 51 -52q0 -18 -12 -37q-125 -172 -365 -172q-212 0 -344 142q-125 133 -125 327zM235 506h645 q-12 131 -99 217q-89 88 -218 88q-133 0 -226 -90q-89 -86 -102 -215zM466 1098q0 14 13 32l147 209q15 23 43 23q51 0 51 -47q0 -11 -3 -21q-3 -6 -9 -14l-141 -199q-25 -32 -51 -32q-50 0 -50 49z" />
<glyph unicode="&#xea;" horiz-adv-x="1101" d="M106 444q0 193 127 329q132 140 330 140q188 0 309 -131q121 -130 121 -327q0 -52 -51 -52h-711q5 -131 94 -223q97 -100 250 -100q170 0 279 129q9 12 18 18q14 9 29 9q51 0 51 -52q0 -18 -12 -37q-125 -172 -365 -172q-212 0 -344 142q-125 133 -125 327zM235 506h645 q-12 131 -99 217q-89 88 -218 88q-133 0 -226 -90q-89 -86 -102 -215zM329 1087q0 14 6 24q3 6 13 15l194 181q17 16 39 16q23 0 39 -16l195 -181q9 -9 13 -15q5 -10 5 -24q0 -40 -47 -40q-17 0 -33 12l-172 151l-172 -151q-15 -12 -33 -12q-47 0 -47 40z" />
<glyph unicode="&#xec;" horiz-adv-x="450" d="M24 1315q0 47 51 47q28 0 43 -23l148 -209q12 -18 12 -32q0 -49 -49 -49q-30 0 -51 32l-142 199q-5 8 -8 14q-4 10 -4 21zM163 45v799q0 61 62 61q61 0 61 -61v-799q0 -61 -61 -61q-62 0 -62 61z" />
<glyph unicode="&#xed;" horiz-adv-x="450" d="M163 45v799q0 61 61 61q62 0 62 -61v-799q0 -61 -62 -61q-61 0 -61 61zM165 1098q0 14 12 32l148 209q15 23 43 23q51 0 51 -47q0 -11 -4 -21q-3 -6 -8 -14l-142 -199q-24 -32 -51 -32q-49 0 -49 49z" />
<glyph unicode="&#xf2;" horiz-adv-x="1146" d="M106 444q0 198 131 332q133 137 336 137t336 -137q131 -134 131 -332q0 -197 -131 -332q-133 -137 -336 -137t-336 137q-131 135 -131 332zM229 444q0 -155 100 -259q99 -103 244 -103t244 103q100 104 100 259q0 156 -100 260q-99 103 -244 103t-244 -103 q-100 -104 -100 -260zM358 1315q0 47 51 47q28 0 43 -23l148 -209q12 -18 12 -32q0 -49 -49 -49q-30 0 -51 32l-142 199q-5 8 -8 14q-4 10 -4 21z" />
<glyph unicode="&#xf3;" horiz-adv-x="1146" d="M106 444q0 198 131 332q133 137 336 137t336 -137q131 -134 131 -332q0 -197 -131 -332q-133 -137 -336 -137t-336 137q-131 135 -131 332zM229 444q0 -155 100 -259q99 -103 244 -103t244 103q100 104 100 259q0 156 -100 260q-99 103 -244 103t-244 -103 q-100 -104 -100 -260zM483 1098q0 14 12 32l148 209q15 23 43 23q51 0 51 -47q0 -11 -4 -21q-3 -6 -9 -14l-141 -199q-24 -32 -51 -32q-49 0 -49 49z" />
<glyph unicode="&#xf4;" horiz-adv-x="1146" d="M106 444q0 198 131 332q133 137 336 137t336 -137q131 -134 131 -332q0 -197 -131 -332q-133 -137 -336 -137t-336 137q-131 135 -131 332zM229 444q0 -155 100 -259q99 -103 244 -103t244 103q100 104 100 259q0 156 -100 260q-99 103 -244 103t-244 -103 q-100 -104 -100 -260zM321 1087q0 14 5 24q4 6 13 15l195 181q16 16 39 16q22 0 39 -16l194 -181q10 -9 13 -15q6 -10 6 -24q0 -40 -47 -40q-18 0 -33 12l-172 151l-172 -151q-15 -12 -33 -12q-47 0 -47 40z" />
<glyph unicode="&#xf5;" horiz-adv-x="1146" d="M106 444q0 198 131 332q133 137 336 137t336 -137q131 -134 131 -332q0 -197 -131 -332q-133 -137 -336 -137t-336 137q-131 135 -131 332zM229 444q0 -155 100 -259q99 -103 244 -103t244 103q100 104 100 259q0 156 -100 260q-99 103 -244 103t-244 -103 q-100 -104 -100 -260zM303 1104q0 17 12 33l20 26q61 76 152 76q53 0 104 -29l63 -35q29 -16 48 -16q29 0 72 43l20 21q9 8 15 12q11 6 24 6q47 0 47 -41q0 -19 -12 -35l-18 -22q-4 -5 -7 -8q-64 -72 -139 -72q-45 0 -121 43q-67 37 -96 37q-42 0 -76 -39l-22 -25 q-9 -8 -15 -12q-11 -6 -24 -6q-47 0 -47 43z" />
<glyph unicode="&#xf9;" horiz-adv-x="582" />
<glyph unicode="&#xfa;" horiz-adv-x="580" />
<glyph unicode="&#xfd;" horiz-adv-x="629" />
<glyph unicode="&#x102;" d="M98 39q0 12 8 29l570 1271q18 41 57 41q38 0 57 -41l570 -1271q8 -17 8 -29q0 -55 -60 -55q-39 0 -55 39l-168 374h-704l-168 -374q-16 -39 -56 -39q-59 0 -59 55zM428 506h610l-305 702zM476 1673q0 45 44 45q46 0 46 -47q0 -110 167 -110q166 0 166 110q0 47 46 47 q44 0 44 -45q0 -196 -256 -196q-257 0 -257 196z" />
<glyph unicode="&#x103;" horiz-adv-x="1056" d="M116 244q0 123 103 197q103 75 274 75q94 0 175 -34q73 -31 112 -76v120q0 283 -297 283q-123 0 -252 -53l-12 -4q-9 -2 -17 -2q-53 0 -53 51q0 29 30 45q132 67 314 67q409 0 409 -385v-483q0 -61 -61 -61t-61 61v45q-103 -115 -306 -115q-162 0 -261 77q-97 75 -97 192 zM239 244q0 -178 254 -178q116 0 199 48q88 51 88 130q0 80 -87 132q-81 48 -192 48q-262 0 -262 -180zM256 1200q0 45 44 45q46 0 46 -47q0 -110 166 -110q167 0 167 110q0 47 46 47q44 0 44 -45q0 -196 -257 -196q-256 0 -256 196z" />
<glyph unicode="&#x110;" horiz-adv-x="1529" d="M77 682q0 53 57 53h158v568q0 61 61 61h390q304 0 495 -198q185 -192 185 -484t-185 -484q-191 -198 -495 -198h-390q-61 0 -61 61v568h-158q-57 0 -57 53zM415 111h319q261 0 417 165q149 158 149 406t-149 406q-156 165 -417 165h-319v-518h328q57 0 57 -53t-57 -53 h-328v-518z" />
<glyph unicode="&#x111;" horiz-adv-x="1333" d="M106 444q0 203 131 337q128 132 318 132q240 0 366 -188v350h-270q-53 0 -53 47q0 45 53 45h270v152q0 61 62 61q61 0 61 -61v-152h170q53 0 53 -45q0 -47 -53 -47h-170v-1030q0 -61 -61 -61q-62 0 -62 61v119q-126 -189 -366 -189q-190 0 -318 133q-131 134 -131 336z M229 444q0 -160 95 -262q96 -102 249 -102q155 0 253 108q95 103 95 256t-95 257q-98 108 -253 108q-153 0 -249 -102q-95 -102 -95 -263z" />
<glyph unicode="&#x128;" horiz-adv-x="532" d="M-12 1530q0 17 12 33l21 26q60 76 151 76q53 0 105 -29l62 -35q29 -16 48 -16q29 0 72 43l21 21q8 8 14 12q11 6 24 6q48 0 48 -41q0 -19 -13 -35l-18 -22q-4 -5 -6 -8q-65 -72 -140 -72q-44 0 -120 43q-67 37 -97 37q-42 0 -75 -39l-23 -25q-9 -8 -15 -12q-10 -6 -24 -6 q-47 0 -47 43zM204 45v1274q0 61 62 61q61 0 61 -61v-1274q0 -61 -61 -61q-62 0 -62 61z" />
<glyph unicode="&#x129;" horiz-adv-x="450" d="M-56 1086q0 17 12 33l21 26q60 76 151 76q53 0 105 -29l62 -35q29 -16 48 -16q29 0 72 43l21 21q8 8 14 12q11 6 24 6q48 0 48 -41q0 -19 -13 -35l-24 -30q-65 -72 -140 -72q-44 0 -120 43q-67 37 -97 37q-42 0 -75 -39l-23 -25q-9 -8 -15 -12q-10 -6 -24 -6 q-47 0 -47 43zM164 45v799q0 61 61 61q62 0 62 -61v-799q0 -61 -62 -61q-61 0 -61 61z" />
<glyph unicode="&#x168;" horiz-adv-x="1511" d="M180 537v782q0 61 61 61q62 0 62 -61v-791q0 -208 108 -322q116 -122 344 -122q229 0 345 122q108 114 108 322v791q0 61 62 61q61 0 61 -61v-782q0 -258 -154 -409q-155 -153 -422 -153q-266 0 -421 153q-154 151 -154 409zM510 1530q0 17 12 33l20 26q61 76 152 76 q53 0 104 -29l63 -35q29 -16 48 -16q29 0 72 43l20 21q9 8 15 12q11 6 24 6q47 0 47 -41q0 -19 -12 -35l-25 -30q-64 -72 -139 -72q-45 0 -121 43q-67 37 -96 37q-42 0 -76 -39l-22 -25q-9 -8 -15 -12q-11 -6 -24 -6q-47 0 -47 43z" />
<glyph unicode="&#x169;" horiz-adv-x="1157" d="M153 387v457q0 61 61 61q62 0 62 -61v-455q0 -301 287 -301q133 0 218 89q89 91 89 239v428q0 61 61 61q62 0 62 -61v-799q0 -61 -62 -61q-61 0 -61 61v107q-103 -177 -334 -177q-175 0 -281 117q-102 114 -102 295zM302 1104q0 17 12 33l21 26q60 76 151 76 q53 0 105 -29l62 -35q29 -16 48 -16q29 0 72 43l21 21q8 8 14 12q11 6 24 6q48 0 48 -41q0 -19 -13 -35l-18 -22q-4 -5 -6 -8q-65 -72 -140 -72q-44 0 -120 43q-67 37 -97 37q-42 0 -75 -39l-23 -25q-9 -8 -15 -12q-10 -6 -24 -6q-47 0 -47 43z" />
<glyph unicode="&#x1a0;" horiz-adv-x="1585" d="M106 682q0 293 190 496q198 211 498 211t496 -211q188 -203 188 -496t-188 -496q-196 -211 -496 -211t-498 211q-190 203 -190 496zM229 682q0 -246 150 -417q160 -181 415 -181q254 0 413 181q148 171 148 417t-148 416q-159 182 -413 182q-255 0 -415 -182 q-150 -170 -150 -416zM1307 1080q0 7 3 17l7 15q30 58 40 116q9 45 9 112v67q0 47 57 47q58 0 58 -47v-67q0 -135 -58 -256l-8 -16l-12 -14q-16 -13 -43 -13q-53 0 -53 39z" />
<glyph unicode="&#x1a1;" horiz-adv-x="1146" d="M106 444q0 198 131 332q133 137 336 137t336 -137q131 -134 131 -332q0 -197 -131 -332q-133 -137 -336 -137t-336 137q-131 135 -131 332zM229 444q0 -155 100 -259q99 -103 244 -103t244 103q100 104 100 259q0 156 -100 260q-99 103 -244 103t-244 -103 q-100 -104 -100 -260zM960 589q0 7 4 17l7 15q29 58 40 116q9 45 9 112v67q0 47 57 47t57 -47v-67q0 -135 -57 -256l-8 -16l-12 -14q-16 -13 -43 -13q-54 0 -54 39z" />
<glyph unicode="&#x1af;" horiz-adv-x="1511" d="M180 537v782q0 61 61 61q62 0 62 -61v-791q0 -208 108 -322q116 -122 344 -122q229 0 345 122q108 114 108 322v791q0 61 62 61q61 0 61 -61v-178q19 44 27 87q8 45 8 112v67q0 47 58 47q57 0 57 -47v-67q0 -135 -57 -256l-9 -16l-12 -14q-15 -13 -43 -13q-17 0 -29 4 v-508q0 -258 -154 -409q-155 -153 -422 -153q-266 0 -421 153q-154 151 -154 409z" />
<glyph unicode="&#x1b0;" horiz-adv-x="1157" d="M153 387v457q0 61 61 61t61 -61v-455q0 -301 287 -301q133 0 219 89q88 91 88 239v428q0 61 62 61q61 0 61 -61v-191q18 42 26 84q8 45 8 112v67q0 47 58 47q57 0 57 -47v-67q0 -135 -57 -256l-9 -16l-12 -14q-15 -13 -43 -13q-17 0 -28 4v-509q0 -61 -61 -61 q-62 0 -62 61v107q-102 -177 -333 -177q-176 0 -281 117q-102 114 -102 295z" />
<glyph unicode="&#x1ea0;" d="M98 39q0 12 8 29l570 1271q18 41 57 41q38 0 57 -41l570 -1271q8 -17 8 -29q0 -55 -60 -55q-39 0 -55 39l-168 374h-704l-168 -374q-16 -39 -56 -39q-59 0 -59 55zM428 506h610l-305 702zM651 -168q0 82 82 82t82 -82t-82 -82t-82 82z" />
<glyph unicode="&#x1ea1;" horiz-adv-x="1056" d="M116 244q0 123 103 197q103 75 274 75q94 0 175 -34q73 -31 112 -76v120q0 283 -297 283q-123 0 -252 -53l-12 -4q-9 -2 -17 -2q-53 0 -53 51q0 29 30 45q132 67 314 67q409 0 409 -385v-483q0 -61 -61 -61t-61 61v45q-103 -115 -306 -115q-162 0 -261 77q-97 75 -97 192 zM239 244q0 -178 254 -178q116 0 199 48q88 51 88 130q0 80 -87 132q-81 48 -192 48q-262 0 -262 -180zM427 -168q0 82 82 82t82 -82t-82 -82t-82 82z" />
<glyph unicode="&#x1ea2;" d="M98 39q0 12 8 29l570 1271q18 41 57 41q38 0 57 -41l570 -1271q8 -17 8 -29q0 -55 -60 -55q-39 0 -55 39l-168 374h-704l-168 -374q-16 -39 -56 -39q-59 0 -59 55zM428 506h610l-305 702zM557 1810q0 16 24 32q72 49 165 49q81 0 127 -36q54 -42 54 -104q0 -69 -86 -142 q-47 -41 -60 -62q-9 -16 -9 -39v-35q0 -37 -50 -37q-48 0 -48 37v34q0 38 22 75q7 12 29 33q5 5 32 29q72 62 72 107q0 66 -86 66q-55 0 -108 -33q-6 -4 -15 -8q-6 -2 -17 -2q-46 0 -46 36z" />
<glyph unicode="&#x1ea3;" horiz-adv-x="1056" d="M116 244q0 123 103 197q103 75 274 75q94 0 175 -34q73 -31 112 -76v120q0 283 -297 283q-123 0 -252 -53l-12 -4q-9 -2 -17 -2q-53 0 -53 51q0 29 30 45q132 67 314 67q409 0 409 -385v-483q0 -61 -61 -61t-61 61v45q-103 -115 -306 -115q-162 0 -261 77q-97 75 -97 192 zM239 244q0 -178 254 -178q116 0 199 48q88 51 88 130q0 80 -87 132q-81 48 -192 48q-262 0 -262 -180zM348 1324q0 15 23 30q67 46 155 46q76 0 119 -34q51 -39 51 -98q0 -64 -80 -134q-45 -37 -57 -58q-9 -15 -9 -36v-33q0 -35 -47 -35q-45 0 -45 35v32q0 35 21 70 q6 11 27 31q5 5 31 28q67 58 67 100q0 62 -81 62q-51 0 -102 -31q-5 -3 -14 -7q-6 -2 -15 -2q-44 0 -44 34z" />
<glyph unicode="&#x1ea4;" d="M98 39q0 12 8 29l570 1271q18 41 57 41q38 0 57 -41l570 -1271q8 -17 8 -29q0 -55 -60 -55q-39 0 -55 39l-168 374h-704l-168 -374q-16 -39 -56 -39q-59 0 -59 55zM428 506h610l-305 702zM487 1522q0 13 6 23q3 6 13 16l186 141q23 16 39 16t39 -16l186 -141 q10 -10 13 -16q6 -10 6 -23q0 -41 -47 -41q-18 0 -33 12l-164 117l-164 -117q-15 -12 -32 -12q-48 0 -48 41zM829 1735q0 19 16 39l113 127q8 10 20 17q14 7 29 7q51 0 51 -47q0 -22 -16 -41l-113 -121q-26 -28 -49 -28q-51 0 -51 47z" />
<glyph unicode="&#x1ea5;" horiz-adv-x="1056" d="M116 244q0 123 103 197q103 75 274 75q94 0 175 -34q73 -31 112 -76v120q0 283 -297 283q-123 0 -252 -53l-12 -4q-9 -2 -17 -2q-53 0 -53 51q0 29 30 45q132 67 314 67q409 0 409 -385v-483q0 -61 -61 -61t-61 61v45q-103 -115 -306 -115q-162 0 -261 77q-97 75 -97 192 zM239 244q0 -178 254 -178q116 0 199 48q88 51 88 130q0 80 -87 132q-81 48 -192 48q-262 0 -262 -180zM268 1087q0 14 5 24q3 6 13 15l195 181q16 16 38 16q23 0 39 -16l195 -181q10 -9 13 -15q5 -10 5 -24q0 -40 -47 -40q-17 0 -33 12l-172 151l-172 -151q-15 -12 -32 -12 q-47 0 -47 40zM638 1302q0 14 12 32l147 209q15 23 43 23q52 0 52 -47q0 -11 -4 -21q-3 -6 -9 -14l-141 -199q-25 -32 -51 -32q-49 0 -49 49z" />
<glyph unicode="&#x1ea6;" d="M98 39q0 12 8 29l570 1271q18 41 57 41q38 0 57 -41l570 -1271q8 -17 8 -29q0 -55 -60 -55q-39 0 -55 39l-168 374h-704l-168 -374q-16 -39 -56 -39q-59 0 -59 55zM428 506h610l-305 702zM487 1522q0 13 6 23q3 6 13 16l186 141q23 16 39 16t39 -16l186 -141 q10 -10 13 -16q6 -10 6 -23q0 -41 -47 -41q-18 0 -33 12l-164 117l-164 -117q-15 -12 -32 -12q-48 0 -48 41zM667 1892q0 47 52 47q14 0 28 -7q12 -7 21 -17l112 -127q17 -20 17 -39q0 -47 -51 -47q-24 0 -50 28l-112 121q-17 19 -17 41z" />
<glyph unicode="&#x1ea7;" horiz-adv-x="1056" d="M116 244q0 123 103 197q103 75 274 75q94 0 175 -34q73 -31 112 -76v120q0 283 -297 283q-123 0 -252 -53l-12 -4q-9 -2 -17 -2q-53 0 -53 51q0 29 30 45q132 67 314 67q409 0 409 -385v-483q0 -61 -61 -61t-61 61v45q-103 -115 -306 -115q-162 0 -261 77q-97 75 -97 192 zM239 244q0 -178 254 -178q116 0 199 48q88 51 88 130q0 80 -87 132q-81 48 -192 48q-262 0 -262 -180zM268 1087q0 14 5 24q3 6 13 15l195 181q16 16 38 16q23 0 39 -16l195 -181q10 -9 13 -15q5 -10 5 -24q0 -40 -47 -40q-17 0 -33 12l-172 151l-172 -151q-15 -12 -32 -12 q-47 0 -47 40zM498 1520q0 47 51 47q28 0 43 -23l148 -209q12 -18 12 -32q0 -49 -49 -49q-30 0 -51 32l-142 199q-5 8 -8 14q-4 10 -4 21z" />
<glyph unicode="&#x1ea8;" d="M98 39q0 12 8 29l570 1271q18 41 57 41q38 0 57 -41l570 -1271q8 -17 8 -29q0 -55 -60 -55q-39 0 -55 39l-168 374h-704l-168 -374q-16 -39 -56 -39q-59 0 -59 55zM428 506h610l-305 702zM487 1522q0 13 5 23q4 6 14 16l186 141q23 16 39 16t39 -16l186 -141 q10 -10 13 -16q6 -10 6 -23q0 -41 -48 -41q-17 0 -32 12l-164 117l-164 -117q-15 -12 -33 -12q-47 0 -47 41zM749 1997q0 16 25 32q71 49 165 49q80 0 126 -36q54 -42 54 -104q0 -69 -85 -142q-48 -41 -60 -62q-10 -16 -10 -39v-14q0 -37 -49 -37t-49 37v13q0 38 23 75 q7 12 28 33q6 5 33 29q71 62 71 107q0 66 -86 66q-54 0 -107 -33q-6 -4 -16 -8q-6 -2 -16 -2q-47 0 -47 36z" />
<glyph unicode="&#x1ea9;" horiz-adv-x="1056" d="M116 244q0 123 103 197q103 75 274 75q94 0 175 -34q73 -31 112 -76v120q0 283 -297 283q-123 0 -252 -53l-12 -4q-9 -2 -17 -2q-53 0 -53 51q0 29 30 45q132 67 314 67q409 0 409 -385v-483q0 -61 -61 -61t-61 61v45q-103 -115 -306 -115q-162 0 -261 77q-97 75 -97 192 zM239 244q0 -178 254 -178q116 0 199 48q88 51 88 130q0 80 -87 132q-81 48 -192 48q-262 0 -262 -180zM268 1087q0 14 5 24q3 6 13 15l195 181q16 16 38 16q23 0 39 -16l195 -181q10 -9 13 -15q5 -10 5 -24q0 -40 -47 -40q-17 0 -33 12l-172 151l-172 -151q-15 -12 -32 -12 q-47 0 -47 40zM543 1611q0 15 23 30q67 46 155 46q76 0 119 -34q51 -39 51 -98q0 -64 -80 -134q-45 -37 -57 -58q-9 -15 -9 -36v-33q0 -35 -47 -35q-45 0 -45 35v32q0 35 21 70q6 11 27 31q5 5 31 28q67 58 67 100q0 62 -81 62q-51 0 -102 -31q-5 -3 -14 -7q-6 -2 -15 -2 q-44 0 -44 34z" />
<glyph unicode="&#x1eaa;" d="M98 39q0 12 8 29l570 1271q18 41 57 41q38 0 57 -41l570 -1271q8 -17 8 -29q0 -55 -60 -55q-39 0 -55 39l-168 374h-704l-168 -374q-16 -39 -56 -39q-59 0 -59 55zM428 506h610l-305 702zM487 1522q0 13 5 23q4 6 14 16l186 141q23 16 39 16t39 -16l186 -141 q10 -10 13 -16q6 -10 6 -23q0 -41 -48 -41q-17 0 -32 12l-164 117l-164 -117q-15 -12 -33 -12q-47 0 -47 41zM513 1780q0 17 13 33l20 26q61 76 152 76q52 0 104 -29l62 -35q29 -16 49 -16q28 0 71 43l21 21q9 8 15 12q10 6 24 6q47 0 47 -41q0 -19 -12 -35l-19 -22 q-4 -5 -6 -8q-65 -72 -139 -72q-45 0 -121 43q-67 37 -96 37q-42 0 -76 -39l-23 -25q-8 -8 -15 -12q-10 -6 -24 -6q-47 0 -47 43z" />
<glyph unicode="&#x1eab;" horiz-adv-x="1056" d="M116 244q0 123 103 197q103 75 274 75q94 0 175 -34q73 -31 112 -76v120q0 283 -297 283q-123 0 -252 -53l-12 -4q-9 -2 -17 -2q-53 0 -53 51q0 29 30 45q132 67 314 67q409 0 409 -385v-483q0 -61 -61 -61t-61 61v45q-103 -115 -306 -115q-162 0 -261 77q-97 75 -97 192 zM239 244q0 -178 254 -178q116 0 199 48q88 51 88 130q0 80 -87 132q-81 48 -192 48q-262 0 -262 -180zM268 1087q0 14 5 24q3 6 13 15l195 181q16 16 38 16q23 0 39 -16l195 -181q10 -9 13 -15q5 -10 5 -24q0 -40 -47 -40q-17 0 -33 12l-172 151l-172 -151q-15 -12 -32 -12 q-47 0 -47 40zM298 1381q0 17 12 33l20 26q61 76 152 76q53 0 104 -29l63 -35q29 -16 48 -16q29 0 72 43l20 21q9 8 15 12q11 6 24 6q47 0 47 -41q0 -19 -12 -35l-25 -30q-64 -72 -139 -72q-45 0 -121 43q-67 37 -96 37q-42 0 -76 -39l-22 -25q-9 -8 -15 -12q-11 -6 -24 -6 q-47 0 -47 43z" />
<glyph unicode="&#x1eac;" d="M98 39q0 12 8 29l570 1271q18 41 57 41q38 0 57 -41l570 -1271q8 -17 8 -29q0 -55 -60 -55q-39 0 -55 39l-168 374h-704l-168 -374q-16 -39 -56 -39q-59 0 -59 55zM428 506h610l-305 702zM487 1522q0 13 5 23q4 6 14 16l186 141q23 16 39 16t39 -16l186 -141 q10 -10 13 -16q6 -10 6 -23q0 -41 -48 -41q-17 0 -32 12l-164 117l-164 -117q-15 -12 -33 -12q-47 0 -47 41zM651 -168q0 82 82 82t82 -82t-82 -82t-82 82z" />
<glyph unicode="&#x1ead;" horiz-adv-x="1056" d="M116 244q0 123 103 197q103 75 274 75q94 0 175 -34q73 -31 112 -76v120q0 283 -297 283q-123 0 -252 -53l-12 -4q-9 -2 -17 -2q-53 0 -53 51q0 29 30 45q132 67 314 67q409 0 409 -385v-483q0 -61 -61 -61t-61 61v45q-103 -115 -306 -115q-162 0 -261 77q-97 75 -97 192 zM239 244q0 -178 254 -178q116 0 199 48q88 51 88 130q0 80 -87 132q-81 48 -192 48q-262 0 -262 -180zM268 1087q0 14 5 24q3 6 13 15l195 181q16 16 38 16q23 0 39 -16l195 -181q10 -9 13 -15q5 -10 5 -24q0 -40 -47 -40q-17 0 -33 12l-172 151l-172 -151q-15 -12 -32 -12 q-47 0 -47 40zM427 -168q0 82 82 82t82 -82t-82 -82t-82 82z" />
<glyph unicode="&#x1eae;" d="M98 39q0 12 8 29l570 1271q18 41 57 41q38 0 57 -41l570 -1271q8 -17 8 -29q0 -55 -60 -55q-39 0 -55 39l-168 374h-704l-168 -374q-16 -39 -56 -39q-59 0 -59 55zM428 506h610l-305 702zM477 1673q0 45 44 45q46 0 46 -47q0 -110 166 -110q167 0 167 110q0 47 46 47 q44 0 44 -45q0 -196 -257 -196q-256 0 -256 196zM686 1735q0 19 16 39l113 127q8 10 20 17q14 7 29 7q51 0 51 -47q0 -22 -16 -41l-113 -121q-26 -28 -49 -28q-51 0 -51 47z" />
<glyph unicode="&#x1eaf;" horiz-adv-x="1056" d="M116 244q0 123 103 197q103 75 274 75q94 0 175 -34q73 -31 112 -76v120q0 283 -297 283q-123 0 -252 -53l-12 -4q-9 -2 -17 -2q-53 0 -53 51q0 29 30 45q132 67 314 67q409 0 409 -385v-483q0 -61 -61 -61t-61 61v45q-103 -115 -306 -115q-162 0 -261 77q-97 75 -97 192 zM239 244q0 -178 254 -178q116 0 199 48q88 51 88 130q0 80 -87 132q-81 48 -192 48q-262 0 -262 -180zM256 1200q0 45 44 45q46 0 46 -47q0 -110 166 -110q167 0 167 110q0 47 46 47q44 0 44 -45q0 -196 -257 -196q-256 0 -256 196zM451 1302q0 14 12 32l147 209 q15 23 43 23q52 0 52 -47q0 -11 -4 -21q-3 -6 -9 -14l-141 -199q-25 -32 -51 -32q-49 0 -49 49z" />
<glyph unicode="&#x1eb0;" d="M98 39q0 12 8 29l570 1271q18 41 57 41q38 0 57 -41l570 -1271q8 -17 8 -29q0 -55 -60 -55q-39 0 -55 39l-168 374h-704l-168 -374q-16 -39 -56 -39q-59 0 -59 55zM428 506h610l-305 702zM477 1673q0 45 44 45q46 0 46 -47q0 -110 166 -110q167 0 167 110q0 47 46 47 q44 0 44 -45q0 -196 -257 -196q-256 0 -256 196zM555 1892q0 47 52 47q14 0 28 -7q12 -7 21 -17l112 -127q17 -20 17 -39q0 -47 -51 -47q-24 0 -50 28l-112 121q-17 19 -17 41z" />
<glyph unicode="&#x1eb1;" horiz-adv-x="1056" d="M116 244q0 123 103 197q103 75 274 75q94 0 175 -34q73 -31 112 -76v120q0 283 -297 283q-123 0 -252 -53l-12 -4q-9 -2 -17 -2q-53 0 -53 51q0 29 30 45q132 67 314 67q409 0 409 -385v-483q0 -61 -61 -61t-61 61v45q-103 -115 -306 -115q-162 0 -261 77q-97 75 -97 192 zM239 244q0 -178 254 -178q116 0 199 48q88 51 88 130q0 80 -87 132q-81 48 -192 48q-262 0 -262 -180zM256 1200q0 45 44 45q46 0 46 -47q0 -110 166 -110q167 0 167 110q0 47 46 47q44 0 44 -45q0 -196 -257 -196q-256 0 -256 196zM346 1520q0 47 51 47q28 0 43 -23 l148 -209q12 -18 12 -32q0 -49 -49 -49q-30 0 -51 32l-142 199q-5 8 -8 14q-4 10 -4 21z" />
<glyph unicode="&#x1eb2;" d="M98 39q0 12 8 29l570 1271q18 41 57 41q38 0 57 -41l570 -1271q8 -17 8 -29q0 -55 -60 -55q-39 0 -55 39l-168 374h-704l-168 -374q-16 -39 -56 -39q-59 0 -59 55zM428 506h610l-305 702zM476 1673q0 45 44 45q46 0 46 -47q0 -110 167 -110q166 0 166 110q0 47 46 47 q44 0 44 -45q0 -196 -256 -196q-257 0 -257 196zM579 2023q0 16 25 32q71 49 165 49q80 0 126 -36q54 -42 54 -104q0 -69 -85 -142q-48 -41 -60 -62q-10 -16 -10 -39v-14q0 -37 -49 -37t-49 37v13q0 38 23 75q7 12 28 33q6 5 33 29q71 62 71 107q0 66 -86 66q-54 0 -107 -33 q-6 -4 -16 -8q-6 -2 -16 -2q-47 0 -47 36z" />
<glyph unicode="&#x1eb3;" horiz-adv-x="1056" d="M116 244q0 123 103 197q103 75 274 75q94 0 175 -34q73 -31 112 -76v120q0 283 -297 283q-123 0 -252 -53l-12 -4q-9 -2 -17 -2q-53 0 -53 51q0 29 30 45q132 67 314 67q409 0 409 -385v-483q0 -61 -61 -61t-61 61v45q-103 -115 -306 -115q-162 0 -261 77q-97 75 -97 192 zM239 244q0 -178 254 -178q116 0 199 48q88 51 88 130q0 80 -87 132q-81 48 -192 48q-262 0 -262 -180zM256 1200q0 45 44 45q46 0 46 -47q0 -110 166 -110q167 0 167 110q0 47 46 47q44 0 44 -45q0 -196 -257 -196q-256 0 -256 196zM373 1611q0 15 23 30q67 46 155 46 q76 0 119 -34q51 -39 51 -98q0 -64 -80 -134q-45 -37 -57 -58q-9 -15 -9 -36v-33q0 -35 -47 -35q-45 0 -45 35v32q0 35 21 70q6 11 27 31q5 5 31 28q67 58 67 100q0 62 -81 62q-51 0 -102 -31q-5 -3 -14 -7q-6 -2 -15 -2q-44 0 -44 34z" />
<glyph unicode="&#x1eb4;" d="M98 39q0 12 8 29l570 1271q18 41 57 41q38 0 57 -41l570 -1271q8 -17 8 -29q0 -55 -60 -55q-39 0 -55 39l-168 374h-704l-168 -374q-16 -39 -56 -39q-59 0 -59 55zM428 506h610l-305 702zM476 1673q0 45 44 45q46 0 46 -47q0 -110 167 -110q166 0 166 110q0 47 46 47 q44 0 44 -45q0 -196 -256 -196q-257 0 -257 196zM513 1780q0 17 13 33l20 26q61 76 152 76q52 0 104 -29l62 -35q29 -16 49 -16q28 0 71 43l21 21q9 8 15 12q10 6 24 6q47 0 47 -41q0 -19 -12 -35l-19 -22q-4 -5 -6 -8q-65 -72 -139 -72q-45 0 -121 43q-67 37 -96 37 q-42 0 -76 -39l-23 -25q-8 -8 -15 -12q-10 -6 -24 -6q-47 0 -47 43z" />
<glyph unicode="&#x1eb5;" horiz-adv-x="1056" d="M116 244q0 123 103 197q103 75 274 75q94 0 175 -34q73 -31 112 -76v120q0 283 -297 283q-123 0 -252 -53l-12 -4q-9 -2 -17 -2q-53 0 -53 51q0 29 30 45q132 67 314 67q409 0 409 -385v-483q0 -61 -61 -61t-61 61v45q-103 -115 -306 -115q-162 0 -261 77q-97 75 -97 192 zM239 244q0 -178 254 -178q116 0 199 48q88 51 88 130q0 80 -87 132q-81 48 -192 48q-262 0 -262 -180zM256 1200q0 45 44 45q46 0 46 -47q0 -110 166 -110q167 0 167 110q0 47 46 47q44 0 44 -45q0 -196 -257 -196q-256 0 -256 196zM271 1372q0 17 12 33l20 26 q61 76 152 76q53 0 104 -29l63 -35q29 -16 48 -16q29 0 72 43l20 21q9 8 15 12q11 6 24 6q47 0 47 -41q0 -19 -12 -35l-25 -30q-64 -72 -139 -72q-45 0 -121 43q-67 37 -96 37q-42 0 -76 -39l-22 -25q-9 -8 -15 -12q-11 -6 -24 -6q-47 0 -47 43z" />
<glyph unicode="&#x1eb6;" d="M98 39q0 12 8 29l570 1271q18 41 57 41q38 0 57 -41l570 -1271q8 -17 8 -29q0 -55 -60 -55q-39 0 -55 39l-168 374h-704l-168 -374q-16 -39 -56 -39q-59 0 -59 55zM428 506h610l-305 702zM476 1673q0 45 44 45q46 0 46 -47q0 -110 167 -110q166 0 166 110q0 47 46 47 q44 0 44 -45q0 -196 -256 -196q-257 0 -257 196zM651 -168q0 82 82 82t82 -82t-82 -82t-82 82z" />
<glyph unicode="&#x1eb7;" horiz-adv-x="1056" d="M116 244q0 123 103 197q103 75 274 75q94 0 175 -34q73 -31 112 -76v120q0 283 -297 283q-123 0 -252 -53l-12 -4q-9 -2 -17 -2q-53 0 -53 51q0 29 30 45q132 67 314 67q409 0 409 -385v-483q0 -61 -61 -61t-61 61v45q-103 -115 -306 -115q-162 0 -261 77q-97 75 -97 192 zM239 244q0 -178 254 -178q116 0 199 48q88 51 88 130q0 80 -87 132q-81 48 -192 48q-262 0 -262 -180zM256 1200q0 45 44 45q46 0 46 -47q0 -110 166 -110q167 0 167 110q0 47 46 47q44 0 44 -45q0 -196 -257 -196q-256 0 -256 196zM427 -168q0 82 82 82t82 -82t-82 -82 t-82 82z" />
<glyph unicode="&#x1eb8;" horiz-adv-x="1193" d="M194 61v1242q0 61 61 61h789q55 0 55 -55q0 -56 -55 -56h-727v-493h422q55 0 55 -55q0 -56 -55 -56h-422v-538h729q55 0 55 -56q0 -55 -55 -55h-791q-61 0 -61 61zM581 -168q0 82 82 82t82 -82t-82 -82t-82 82z" />
<glyph unicode="&#x1eb9;" horiz-adv-x="1101" d="M106 444q0 193 127 329q132 140 330 140q188 0 309 -131q121 -130 121 -327q0 -52 -51 -52h-711q5 -131 94 -223q97 -100 250 -100q170 0 279 129q9 12 18 18q14 9 29 9q51 0 51 -52q0 -18 -12 -37q-125 -172 -365 -172q-212 0 -344 142q-125 133 -125 327zM235 506h645 q-12 131 -99 217q-89 88 -218 88q-133 0 -226 -90q-89 -86 -102 -215zM467 -168q0 82 82 82t82 -82t-82 -82t-82 82z" />
<glyph unicode="&#x1eba;" horiz-adv-x="1193" d="M194 61v1242q0 61 61 61h789q55 0 55 -55q0 -56 -55 -56h-727v-493h422q55 0 55 -55q0 -56 -55 -56h-422v-538h729q55 0 55 -56q0 -55 -55 -55h-791q-61 0 -61 61zM467 1810q0 16 25 32q71 49 165 49q81 0 126 -36q54 -42 54 -104q0 -69 -85 -142q-47 -41 -60 -62 q-9 -16 -9 -39v-35q0 -37 -50 -37q-49 0 -49 37v34q0 38 23 75q7 12 28 33q6 5 33 29q71 62 71 107q0 66 -85 66q-55 0 -108 -33q-6 -4 -15 -8q-7 -2 -17 -2q-47 0 -47 36z" />
<glyph unicode="&#x1ebb;" horiz-adv-x="1101" d="M106 444q0 193 127 329q132 140 330 140q188 0 309 -131q121 -130 121 -327q0 -52 -51 -52h-711q5 -131 94 -223q97 -100 250 -100q170 0 279 129q9 12 18 18q14 9 29 9q51 0 51 -52q0 -18 -12 -37q-125 -172 -365 -172q-212 0 -344 142q-125 133 -125 327zM235 506h645 q-12 131 -99 217q-89 88 -218 88q-133 0 -226 -90q-89 -86 -102 -215zM402 1324q0 15 23 30q67 46 155 46q76 0 119 -34q51 -39 51 -98q0 -64 -80 -134q-45 -37 -57 -58q-9 -15 -9 -36v-33q0 -35 -46 -35t-46 35v32q0 35 21 70q7 11 27 31q5 5 31 28q67 58 67 100 q0 62 -81 62q-51 0 -101 -31l-14 -7q-6 -2 -16 -2q-44 0 -44 34z" />
<glyph unicode="&#x1ebc;" horiz-adv-x="1193" d="M194 61v1242q0 61 61 61h789q55 0 55 -55q0 -56 -55 -56h-727v-493h422q55 0 55 -55q0 -56 -55 -56h-422v-538h729q55 0 55 -56q0 -55 -55 -55h-791q-61 0 -61 61zM354 1530q0 17 12 33l21 26q60 76 151 76q53 0 105 -29l62 -35q29 -16 48 -16q29 0 72 43l21 21 q8 8 14 12q11 6 24 6q48 0 48 -41q0 -19 -13 -35l-18 -22q-4 -5 -6 -8q-65 -72 -140 -72q-44 0 -120 43q-67 37 -97 37q-42 0 -75 -39l-23 -25q-9 -8 -15 -12q-10 -6 -24 -6q-47 0 -47 43z" />
<glyph unicode="&#x1ebd;" horiz-adv-x="1101" d="M106 444q0 193 127 329q132 140 330 140q188 0 309 -131q121 -130 121 -327q0 -52 -51 -52h-711q5 -131 94 -223q97 -100 250 -100q170 0 279 129q9 12 18 18q14 9 29 9q51 0 51 -52q0 -18 -12 -37q-125 -172 -365 -172q-212 0 -344 142q-125 133 -125 327zM235 506h645 q-12 131 -99 217q-89 88 -218 88q-133 0 -226 -90q-89 -86 -102 -215zM309 1104q0 17 12 33l21 26q60 76 151 76q53 0 105 -29l62 -35q29 -16 48 -16q29 0 72 43l20 21q9 8 15 12q11 6 24 6q47 0 47 -41q0 -19 -12 -35l-24 -30q-65 -72 -140 -72q-44 0 -121 43 q-67 37 -96 37q-42 0 -76 -39l-22 -25q-9 -8 -15 -12q-10 -6 -24 -6q-47 0 -47 43z" />
<glyph unicode="&#x1ebe;" horiz-adv-x="1193" d="M194 61v1242q0 61 61 61h789q55 0 55 -55q0 -56 -55 -56h-727v-493h422q55 0 55 -55q0 -56 -55 -56h-422v-538h729q55 0 55 -56q0 -55 -55 -55h-791q-61 0 -61 61zM407 1522q0 13 5 23q4 6 13 16l187 141q23 16 39 16t39 -16l186 -141q10 -10 13 -16q5 -10 5 -23 q0 -41 -47 -41q-17 0 -32 12l-164 117l-164 -117q-15 -12 -33 -12q-47 0 -47 41zM764 1715q0 19 16 39l113 127q8 10 21 17q14 7 28 7q51 0 51 -47q0 -22 -16 -41l-113 -121q-26 -28 -49 -28q-51 0 -51 47z" />
<glyph unicode="&#x1ebf;" horiz-adv-x="1101" d="M106 444q0 193 127 329q132 140 330 140q188 0 309 -131q121 -130 121 -327q0 -52 -51 -52h-711q5 -131 94 -223q97 -100 250 -100q170 0 279 129q9 12 18 18q14 9 29 9q51 0 51 -52q0 -18 -12 -37q-125 -172 -365 -172q-212 0 -344 142q-125 133 -125 327zM235 506h645 q-12 131 -99 217q-89 88 -218 88q-133 0 -226 -90q-89 -86 -102 -215zM329 1087q0 14 6 24q3 6 13 15l194 181q17 16 39 16q23 0 39 -16l195 -181q9 -9 13 -15q5 -10 5 -24q0 -40 -47 -40q-17 0 -33 12l-172 151l-172 -151q-15 -12 -33 -12q-47 0 -47 40zM707 1321 q0 14 13 32l147 209q15 23 43 23q51 0 51 -47q0 -11 -3 -21q-3 -6 -9 -14l-141 -199q-25 -32 -51 -32q-50 0 -50 49z" />
<glyph unicode="&#x1ec0;" horiz-adv-x="1193" d="M194 61v1242q0 61 61 61h789q55 0 55 -55q0 -56 -55 -56h-727v-493h422q55 0 55 -55q0 -56 -55 -56h-422v-538h729q55 0 55 -56q0 -55 -55 -55h-791q-61 0 -61 61zM407 1522q0 13 5 23q4 6 13 16l187 141q23 16 39 16t39 -16l186 -141q10 -10 13 -16q5 -10 5 -23 q0 -41 -47 -41q-17 0 -32 12l-164 117l-164 -117q-15 -12 -33 -12q-47 0 -47 41zM623 1867q0 47 51 47q14 0 29 -7q12 -7 20 -17l113 -127q16 -20 16 -39q0 -47 -51 -47q-23 0 -49 28l-113 121q-16 19 -16 41z" />
<glyph unicode="&#x1ec1;" horiz-adv-x="1101" d="M106 444q0 193 127 329q132 140 330 140q188 0 309 -131q121 -130 121 -327q0 -52 -51 -52h-711q5 -131 94 -223q97 -100 250 -100q170 0 279 129q9 12 18 18q14 9 29 9q51 0 51 -52q0 -18 -12 -37q-125 -172 -365 -172q-212 0 -344 142q-125 133 -125 327zM235 506h645 q-12 131 -99 217q-89 88 -218 88q-133 0 -226 -90q-89 -86 -102 -215zM329 1087q0 14 6 24q3 6 13 15l194 181q17 16 39 16q23 0 39 -16l195 -181q9 -9 13 -15q5 -10 5 -24q0 -40 -47 -40q-17 0 -33 12l-172 151l-172 -151q-15 -12 -33 -12q-47 0 -47 40zM561 1520 q0 47 52 47q28 0 43 -23l147 -209q12 -18 12 -32q0 -49 -49 -49q-29 0 -51 32l-141 199q-6 8 -9 14q-4 10 -4 21z" />
<glyph unicode="&#x1ec2;" horiz-adv-x="1193" d="M194 61v1242q0 61 61 61h789q55 0 55 -55q0 -56 -55 -56h-727v-493h422q55 0 55 -55q0 -56 -55 -56h-422v-538h729q55 0 55 -56q0 -55 -55 -55h-791q-61 0 -61 61zM407 1522q0 13 5 23q4 6 13 16l187 141q23 16 39 16t39 -16l186 -141q10 -10 13 -16q5 -10 5 -23 q0 -41 -47 -41q-17 0 -32 12l-164 117l-164 -117q-15 -12 -33 -12q-47 0 -47 41zM695 1997q0 16 25 32q71 49 164 49q81 0 127 -36q54 -42 54 -104q0 -69 -85 -142q-48 -41 -61 -62q-9 -16 -9 -39v-14q0 -37 -50 -37q-48 0 -48 37v13q0 38 22 75q7 12 29 33q6 5 33 29 q71 62 71 107q0 66 -86 66q-54 0 -108 -33q-6 -4 -15 -8q-6 -2 -16 -2q-47 0 -47 36z" />
<glyph unicode="&#x1ec3;" horiz-adv-x="1101" d="M106 444q0 193 127 329q132 140 330 140q188 0 309 -131q121 -130 121 -327q0 -52 -51 -52h-711q5 -131 94 -223q97 -100 250 -100q170 0 279 129q9 12 18 18q14 9 29 9q51 0 51 -52q0 -18 -12 -37q-125 -172 -365 -172q-212 0 -344 142q-125 133 -125 327zM235 506h645 q-12 131 -99 217q-89 88 -218 88q-133 0 -226 -90q-89 -86 -102 -215zM329 1087q0 14 6 24q3 6 13 15l194 181q17 16 39 16q23 0 39 -16l195 -181q9 -9 13 -15q5 -10 5 -24q0 -40 -47 -40q-17 0 -33 12l-172 151l-172 -151q-15 -12 -33 -12q-47 0 -47 40zM616 1592 q0 15 23 30q67 46 155 46q76 0 119 -34q51 -39 51 -98q0 -64 -80 -134q-45 -37 -57 -58q-9 -15 -9 -36v-33q0 -35 -46 -35t-46 35v32q0 35 21 70q7 11 27 31q5 5 31 28q67 58 67 100q0 62 -81 62q-51 0 -101 -31l-14 -7q-6 -2 -16 -2q-44 0 -44 34z" />
<glyph unicode="&#x1ec4;" horiz-adv-x="1193" d="M194 61v1242q0 61 61 61h789q55 0 55 -55q0 -56 -55 -56h-727v-493h422q55 0 55 -55q0 -56 -55 -56h-422v-538h729q55 0 55 -56q0 -55 -55 -55h-791q-61 0 -61 61zM407 1522q0 13 5 23q4 6 13 16l187 141q23 16 39 16t39 -16l186 -141q10 -10 13 -16q5 -10 5 -23 q0 -41 -47 -41q-17 0 -32 12l-164 117l-164 -117q-15 -12 -33 -12q-47 0 -47 41zM434 1768q0 17 12 33l21 26q60 76 151 76q53 0 105 -29l62 -35q29 -16 48 -16q29 0 72 43l21 21q8 8 14 12q11 6 24 6q48 0 48 -41q0 -19 -13 -35l-18 -22q-4 -5 -6 -8q-65 -72 -140 -72 q-44 0 -120 43q-67 37 -97 37q-42 0 -75 -39l-23 -25q-9 -8 -15 -12q-10 -6 -24 -6q-47 0 -47 43z" />
<glyph unicode="&#x1ec5;" horiz-adv-x="1101" d="M106 444q0 193 127 329q132 140 330 140q188 0 309 -131q121 -130 121 -327q0 -52 -51 -52h-711q5 -131 94 -223q97 -100 250 -100q170 0 279 129q9 12 18 18q14 9 29 9q51 0 51 -52q0 -18 -12 -37q-125 -172 -365 -172q-212 0 -344 142q-125 133 -125 327zM235 506h645 q-12 131 -99 217q-89 88 -218 88q-133 0 -226 -90q-89 -86 -102 -215zM329 1087q0 14 6 24q3 6 13 15l194 181q17 16 39 16q23 0 39 -16l195 -181q9 -9 13 -15q5 -10 5 -24q0 -40 -47 -40q-17 0 -33 12l-172 151l-172 -151q-15 -12 -33 -12q-47 0 -47 40zM362 1380 q0 17 12 33l21 26q60 76 151 76q53 0 105 -29l62 -35q29 -16 48 -16q29 0 72 43l20 21q9 8 15 12q11 6 24 6q47 0 47 -41q0 -19 -12 -35l-24 -30q-65 -72 -140 -72q-44 0 -121 43q-67 37 -96 37q-42 0 -76 -39l-22 -25q-9 -8 -15 -12q-10 -6 -24 -6q-47 0 -47 43z" />
<glyph unicode="&#x1ec6;" horiz-adv-x="1193" d="M194 61v1242q0 61 61 61h789q55 0 55 -55q0 -56 -55 -56h-727v-493h422q55 0 55 -55q0 -56 -55 -56h-422v-538h729q55 0 55 -56q0 -55 -55 -55h-791q-61 0 -61 61zM407 1522q0 13 5 23q4 6 13 16l187 141q23 16 39 16t39 -16l186 -141q10 -10 13 -16q5 -10 5 -23 q0 -41 -47 -41q-17 0 -32 12l-164 117l-164 -117q-15 -12 -33 -12q-47 0 -47 41zM581 -168q0 82 82 82t82 -82t-82 -82t-82 82z" />
<glyph unicode="&#x1ec7;" horiz-adv-x="1101" d="M106 444q0 193 127 329q132 140 330 140q188 0 309 -131q121 -130 121 -327q0 -52 -51 -52h-711q5 -131 94 -223q97 -100 250 -100q170 0 279 129q9 12 18 18q14 9 29 9q51 0 51 -52q0 -18 -12 -37q-125 -172 -365 -172q-212 0 -344 142q-125 133 -125 327zM235 506h645 q-12 131 -99 217q-89 88 -218 88q-133 0 -226 -90q-89 -86 -102 -215zM329 1087q0 14 6 24q3 6 13 15l194 181q17 16 39 16q23 0 39 -16l195 -181q9 -9 13 -15q5 -10 5 -24q0 -40 -47 -40q-17 0 -33 12l-172 151l-172 -151q-15 -12 -33 -12q-47 0 -47 40zM467 -168 q0 82 82 82t82 -82t-82 -82t-82 82z" />
<glyph unicode="&#x1ec8;" horiz-adv-x="532" d="M83 1810q0 16 25 32q71 49 164 49q81 0 127 -36q54 -42 54 -104q0 -69 -85 -142q-48 -41 -61 -62q-9 -16 -9 -39v-35q0 -37 -50 -37q-48 0 -48 37v34q0 38 22 75q7 12 29 33q6 5 33 29q71 62 71 107q0 66 -86 66q-54 0 -108 -33q-6 -4 -15 -8q-6 -2 -16 -2q-47 0 -47 36z M204 45v1274q0 61 61 61q62 0 62 -61v-1274q0 -61 -62 -61q-61 0 -61 61z" />
<glyph unicode="&#x1ec9;" horiz-adv-x="450" d="M55 1324q0 15 23 30q67 46 155 46q76 0 119 -34q51 -39 51 -98q0 -64 -80 -134q-45 -37 -57 -58q-9 -15 -9 -36v-33q0 -35 -47 -35q-45 0 -45 35v32q0 35 21 70q7 11 27 31q5 5 31 28q67 58 67 100q0 62 -81 62q-51 0 -101 -31q-6 -3 -15 -7q-5 -2 -15 -2q-44 0 -44 34z M164 45v799q0 61 61 61q62 0 62 -61v-799q0 -61 -62 -61q-61 0 -61 61z" />
<glyph unicode="&#x1eca;" horiz-adv-x="532" d="M188 -168q0 82 82 82t82 -82t-82 -82t-82 82zM204 45v1274q0 61 61 61t61 -61v-1274q0 -61 -61 -61t-61 61z" />
<glyph unicode="&#x1ecb;" horiz-adv-x="450" d="M146 -168q0 82 82 82t82 -82t-82 -82t-82 82zM147 1159q0 78 78 78t78 -78t-78 -78t-78 78zM163 45v799q0 61 62 61q61 0 61 -61v-799q0 -61 -61 -61q-62 0 -62 61z" />
<glyph unicode="&#x1ecc;" horiz-adv-x="1585" d="M106 682q0 293 190 496q198 211 498 211t496 -211q188 -203 188 -496t-188 -496q-196 -211 -496 -211t-498 211q-190 203 -190 496zM229 682q0 -246 150 -417q160 -181 415 -181q254 0 413 181q148 171 148 417t-148 416q-159 182 -413 182q-255 0 -415 -182 q-150 -170 -150 -416zM710 -168q0 82 82 82t82 -82t-82 -82t-82 82z" />
<glyph unicode="&#x1ecd;" horiz-adv-x="1146" d="M106 444q0 198 131 332q133 137 336 137t336 -137q131 -134 131 -332q0 -197 -131 -332q-133 -137 -336 -137t-336 137q-131 135 -131 332zM229 444q0 -155 100 -259q99 -103 244 -103t244 103q100 104 100 259q0 156 -100 260q-99 103 -244 103t-244 -103 q-100 -104 -100 -260zM491 -168q0 82 82 82t82 -82t-82 -82t-82 82z" />
<glyph unicode="&#x1ece;" horiz-adv-x="1585" d="M106 682q0 293 190 496q198 211 498 211t496 -211q188 -203 188 -496t-188 -496q-196 -211 -496 -211t-498 211q-190 203 -190 496zM229 682q0 -246 150 -417q160 -181 415 -181q254 0 413 181q148 171 148 417t-148 416q-159 182 -413 182q-255 0 -415 -182 q-150 -170 -150 -416zM607 1810q0 16 25 32q71 49 165 49q80 0 126 -36q54 -42 54 -104q0 -69 -85 -142q-48 -41 -61 -62q-9 -16 -9 -39v-35q0 -37 -50 -37q-48 0 -48 37v34q0 38 22 75q7 12 29 33q6 5 33 29q71 62 71 107q0 66 -86 66q-54 0 -108 -33q-6 -4 -15 -8 q-6 -2 -16 -2q-47 0 -47 36z" />
<glyph unicode="&#x1ecf;" horiz-adv-x="1146" d="M106 444q0 198 131 332q133 137 336 137t336 -137q131 -134 131 -332q0 -197 -131 -332q-133 -137 -336 -137t-336 137q-131 135 -131 332zM229 444q0 -155 100 -259q99 -103 244 -103t244 103q100 104 100 259q0 156 -100 260q-99 103 -244 103t-244 -103 q-100 -104 -100 -260zM394 1324q0 15 23 30q67 46 155 46q76 0 119 -34q51 -39 51 -98q0 -64 -81 -134q-44 -37 -56 -58q-9 -15 -9 -36v-33q0 -35 -47 -35q-45 0 -45 35v32q0 35 21 70q6 11 27 31q5 5 30 28q67 58 67 100q0 62 -80 62q-52 0 -102 -31q-5 -3 -14 -7 q-6 -2 -16 -2q-43 0 -43 34z" />
<glyph unicode="&#x1ed0;" horiz-adv-x="1585" d="M106 682q0 293 190 496q198 211 498 211t496 -211q188 -203 188 -496t-188 -496q-196 -211 -496 -211t-498 211q-190 203 -190 496zM229 682q0 -246 150 -417q160 -181 415 -181q254 0 413 181q148 171 148 417t-148 416q-159 182 -413 182q-255 0 -415 -182 q-150 -170 -150 -416zM550 1522q0 13 6 23q3 6 13 16l186 141q23 16 39 16t39 -16l186 -141q10 -10 13 -16q6 -10 6 -23q0 -41 -47 -41q-18 0 -33 12l-164 117l-164 -117q-15 -12 -32 -12q-48 0 -48 41zM908 1708q0 19 16 39l113 127q8 10 20 17q14 7 29 7q51 0 51 -47 q0 -22 -16 -41l-113 -121q-26 -28 -49 -28q-51 0 -51 47z" />
<glyph unicode="&#x1ed1;" horiz-adv-x="1146" d="M106 444q0 198 131 332q133 137 336 137t336 -137q131 -134 131 -332q0 -197 -131 -332q-133 -137 -336 -137t-336 137q-131 135 -131 332zM229 444q0 -155 100 -259q99 -103 244 -103t244 103q100 104 100 259q0 156 -100 260q-99 103 -244 103t-244 -103 q-100 -104 -100 -260zM321 1087q0 14 5 24q4 6 13 15l195 181q16 16 39 16q22 0 39 -16l194 -181q10 -9 13 -15q6 -10 6 -24q0 -40 -47 -40q-18 0 -33 12l-172 151l-172 -151q-15 -12 -33 -12q-47 0 -47 40zM690 1302q0 14 12 32l148 209q15 23 43 23q51 0 51 -47 q0 -11 -4 -21q-3 -6 -9 -14l-141 -199q-24 -32 -51 -32q-49 0 -49 49z" />
<glyph unicode="&#x1ed2;" horiz-adv-x="1609" d="M118 682q0 293 190 496q198 211 498 211t496 -211q188 -203 188 -496t-188 -496q-196 -211 -496 -211t-498 211q-190 203 -190 496zM241 682q0 -246 150 -417q160 -181 415 -181q254 0 413 181q148 171 148 417t-148 416q-159 182 -413 182q-255 0 -415 -182 q-150 -170 -150 -416zM550 1522q0 13 6 23q3 6 13 16l186 141q23 16 39 16t39 -16l186 -141q10 -10 13 -16q6 -10 6 -23q0 -41 -48 -41q-17 0 -32 12l-164 117l-164 -117q-15 -12 -33 -12q-47 0 -47 41zM778 1858q0 47 51 47q15 0 29 -7q12 -7 20 -17l113 -127 q17 -20 17 -39q0 -47 -52 -47q-23 0 -49 28l-112 121q-17 19 -17 41z" />
<glyph unicode="&#x1ed3;" horiz-adv-x="1146" d="M106 444q0 198 131 332q133 137 336 137t336 -137q131 -134 131 -332q0 -197 -131 -332q-133 -137 -336 -137t-336 137q-131 135 -131 332zM229 444q0 -155 100 -259q99 -103 244 -103t244 103q100 104 100 259q0 156 -100 260q-99 103 -244 103t-244 -103 q-100 -104 -100 -260zM321 1087q0 14 5 24q4 6 13 15l195 181q16 16 39 16q22 0 39 -16l194 -181q10 -9 13 -15q6 -10 6 -24q0 -40 -47 -40q-18 0 -33 12l-172 151l-172 -151q-15 -12 -33 -12q-47 0 -47 40zM543 1538q0 47 51 47q28 0 43 -23l148 -209q12 -18 12 -32 q0 -49 -49 -49q-30 0 -51 32l-142 199q-5 8 -8 14q-4 10 -4 21z" />
<glyph unicode="&#x1ed4;" horiz-adv-x="1585" d="M106 682q0 293 190 496q198 211 498 211t496 -211q188 -203 188 -496t-188 -496q-196 -211 -496 -211t-498 211q-190 203 -190 496zM229 682q0 -246 150 -417q160 -181 415 -181q254 0 413 181q148 171 148 417t-148 416q-159 182 -413 182q-255 0 -415 -182 q-150 -170 -150 -416zM550 1522q0 13 6 23q3 6 13 16l186 141q23 16 39 16t39 -16l186 -141q10 -10 13 -16q6 -10 6 -23q0 -41 -47 -41q-18 0 -33 12l-164 117l-164 -117q-15 -12 -32 -12q-48 0 -48 41zM811 2024q0 16 25 32q71 49 165 49q80 0 126 -36q54 -42 54 -104 q0 -69 -85 -142q-48 -41 -61 -62q-9 -16 -9 -39v-14q0 -37 -50 -37q-48 0 -48 37v13q0 38 22 75q7 12 29 33q6 5 33 29q71 62 71 107q0 66 -86 66q-54 0 -108 -33q-6 -4 -15 -8q-6 -2 -16 -2q-47 0 -47 36z" />
<glyph unicode="&#x1ed5;" horiz-adv-x="1146" d="M106 444q0 198 131 332q133 137 336 137t336 -137q131 -134 131 -332q0 -197 -131 -332q-133 -137 -336 -137t-336 137q-131 135 -131 332zM229 444q0 -155 100 -259q99 -103 244 -103t244 103q100 104 100 259q0 156 -100 260q-99 103 -244 103t-244 -103 q-100 -104 -100 -260zM321 1087q0 14 5 24q4 6 13 15l195 181q16 16 39 16q22 0 39 -16l194 -181q10 -9 13 -15q6 -10 6 -24q0 -40 -47 -40q-18 0 -33 12l-172 151l-172 -151q-15 -12 -33 -12q-47 0 -47 40zM590 1598q0 15 23 30q67 46 155 46q76 0 119 -34q51 -39 51 -98 q0 -64 -81 -134q-44 -37 -56 -58q-9 -15 -9 -36v-33q0 -35 -47 -35q-45 0 -45 35v32q0 35 21 70q6 11 27 31q5 5 30 28q67 58 67 100q0 62 -80 62q-52 0 -102 -31q-5 -3 -14 -7q-6 -2 -16 -2q-43 0 -43 34z" />
<glyph unicode="&#x1ed6;" horiz-adv-x="1585" d="M106 682q0 293 190 496q198 211 498 211t496 -211q188 -203 188 -496t-188 -496q-196 -211 -496 -211t-498 211q-190 203 -190 496zM229 682q0 -246 150 -417q160 -181 415 -181q254 0 413 181q148 171 148 417t-148 416q-159 182 -413 182q-255 0 -415 -182 q-150 -170 -150 -416zM509 1530q0 17 13 33l20 26q61 76 152 76q53 0 104 -29l62 -35q30 -16 49 -16q28 0 71 43l21 21q9 8 15 12q10 6 24 6q47 0 47 -41q0 -19 -12 -35l-25 -30q-64 -72 -139 -72q-45 0 -121 43q-67 37 -96 37q-42 0 -76 -39l-23 -25q-8 -8 -14 -12 q-11 -6 -24 -6q-48 0 -48 43z" />
<glyph unicode="&#x1ed7;" horiz-adv-x="1146" d="M106 444q0 198 131 332q133 137 336 137t336 -137q131 -134 131 -332q0 -197 -131 -332q-133 -137 -336 -137t-336 137q-131 135 -131 332zM229 444q0 -155 100 -259q99 -103 244 -103t244 103q100 104 100 259q0 156 -100 260q-99 103 -244 103t-244 -103 q-100 -104 -100 -260zM321 1087q0 14 5 24q4 6 13 15l195 181q16 16 39 16q22 0 39 -16l194 -181q10 -9 13 -15q6 -10 6 -24q0 -40 -47 -40q-18 0 -33 12l-172 151l-172 -151q-15 -12 -33 -12q-47 0 -47 40zM356 1377q0 17 12 33l20 26q61 76 152 76q53 0 104 -29l63 -35 q29 -16 48 -16q29 0 72 43l20 21q9 8 15 12q11 6 24 6q47 0 47 -41q0 -19 -12 -35l-18 -22q-4 -5 -7 -8q-64 -72 -139 -72q-45 0 -121 43q-67 37 -96 37q-42 0 -76 -39l-22 -25q-9 -8 -15 -12q-11 -6 -24 -6q-47 0 -47 43z" />
<glyph unicode="&#x1ed8;" horiz-adv-x="1585" d="M106 682q0 293 190 496q198 211 498 211t496 -211q188 -203 188 -496t-188 -496q-196 -211 -496 -211t-498 211q-190 203 -190 496zM229 682q0 -246 150 -417q160 -181 415 -181q254 0 413 181q148 171 148 417t-148 416q-159 182 -413 182q-255 0 -415 -182 q-150 -170 -150 -416zM710 -168q0 82 82 82t82 -82t-82 -82t-82 82z" />
<glyph unicode="&#x1ed9;" horiz-adv-x="1146" d="M106 444q0 198 131 332q133 137 336 137t336 -137q131 -134 131 -332q0 -197 -131 -332q-133 -137 -336 -137t-336 137q-131 135 -131 332zM229 444q0 -155 100 -259q99 -103 244 -103t244 103q100 104 100 259q0 156 -100 260q-99 103 -244 103t-244 -103 q-100 -104 -100 -260zM321 1087q0 14 5 24q4 6 13 15l195 181q16 16 39 16q22 0 39 -16l194 -181q10 -9 13 -15q6 -10 6 -24q0 -40 -47 -40q-18 0 -33 12l-172 151l-172 -151q-15 -12 -33 -12q-47 0 -47 40zM491 -168q0 82 82 82t82 -82t-82 -82t-82 82z" />
<glyph unicode="&#x1eda;" horiz-adv-x="1585" d="M106 682q0 293 191 496q197 211 498 211q300 0 495 -211q20 -21 38 -44q21 47 30 94q8 45 8 112v67q0 47 58 47q57 0 57 -47v-67q0 -135 -57 -256l-9 -16l-11 -14q-7 -6 -16 -9q91 -160 91 -363q0 -293 -189 -496q-195 -211 -495 -211q-301 0 -498 211q-191 203 -191 496 zM229 682q0 -246 151 -417q160 -181 415 -181q254 0 412 181q149 171 149 417t-149 416q-158 182 -412 182q-255 0 -415 -182q-151 -170 -151 -416zM729 1528q0 19 16 39l113 127q9 10 21 17q14 7 28 7q51 0 51 -47q0 -22 -16 -41l-113 -121q-25 -28 -49 -28q-51 0 -51 47z " />
<glyph unicode="&#x1edb;" horiz-adv-x="1146" d="M106 444q0 198 131 332q133 137 336 137t336 -137q50 -52 81 -113q15 37 22 74q8 45 8 112v67q0 47 58 47q57 0 57 -47v-67q0 -135 -57 -256l-9 -16l-12 -14q-11 -9 -28 -12q11 -51 11 -107q0 -197 -131 -332q-133 -137 -336 -137t-336 137q-131 135 -131 332zM229 444 q0 -155 100 -259q99 -103 244 -103t244 103q100 104 100 259q0 156 -100 260q-99 103 -244 103t-244 -103q-100 -104 -100 -260zM483 1098q0 14 12 32l148 209q15 23 43 23q51 0 51 -47q0 -11 -4 -21q-3 -6 -9 -14l-141 -199q-24 -32 -51 -32q-49 0 -49 49z" />
<glyph unicode="&#x1edc;" horiz-adv-x="1609" d="M118 682q0 293 190 496q197 211 498 211q300 0 496 -211q15 -16 29 -34q18 42 26 84q8 45 8 112v67q0 47 58 47q57 0 57 -47v-67q0 -135 -57 -256l-9 -16l-11 -14l-6 -4q93 -162 93 -368q0 -293 -188 -496q-196 -211 -496 -211q-301 0 -498 211q-190 203 -190 496z M241 682q0 -246 150 -417q160 -181 415 -181q254 0 413 181q148 171 148 417t-148 416q-159 182 -413 182q-255 0 -415 -182q-150 -170 -150 -416zM636 1671q0 47 51 47q14 0 29 -7q12 -7 20 -17l113 -127q16 -20 16 -39q0 -47 -51 -47q-23 0 -49 28l-113 121q-16 19 -16 41 z" />
<glyph unicode="&#x1edd;" horiz-adv-x="1146" d="M106 444q0 198 131 332q133 137 336 137t336 -137q50 -52 81 -113q15 37 22 74q8 45 8 112v67q0 47 58 47q57 0 57 -47v-67q0 -135 -57 -256l-9 -16l-12 -14q-11 -9 -28 -12q11 -51 11 -107q0 -197 -131 -332q-133 -137 -336 -137t-336 137q-131 135 -131 332zM229 444 q0 -155 100 -259q99 -103 244 -103t244 103q100 104 100 259q0 156 -100 260q-99 103 -244 103t-244 -103q-100 -104 -100 -260zM358 1315q0 47 51 47q28 0 43 -23l148 -209q12 -18 12 -32q0 -49 -49 -49q-30 0 -51 32l-142 199q-5 8 -8 14q-4 10 -4 21z" />
<glyph unicode="&#x1ede;" horiz-adv-x="1585" d="M106 682q0 293 191 496q197 211 498 211q300 0 495 -211q20 -21 38 -44q21 47 30 94q8 45 8 112v67q0 47 58 47q57 0 57 -47v-67q0 -135 -57 -256l-9 -16l-11 -14q-7 -6 -16 -9q91 -160 91 -363q0 -293 -189 -496q-195 -211 -495 -211q-301 0 -498 211q-191 203 -191 496 zM229 682q0 -246 151 -417q160 -181 415 -181q254 0 412 181q149 171 149 417t-149 416q-158 182 -412 182q-255 0 -415 -182q-151 -170 -151 -416zM608 1810q0 16 24 32q72 49 165 49q81 0 127 -36q54 -42 54 -104q0 -69 -86 -142q-47 -41 -60 -62q-9 -16 -9 -39v-35 q0 -37 -50 -37q-48 0 -48 37v34q0 38 22 75q7 12 29 33q5 5 32 29q71 62 71 107q0 66 -85 66q-55 0 -108 -33q-6 -4 -15 -8q-7 -2 -17 -2q-46 0 -46 36z" />
<glyph unicode="&#x1edf;" horiz-adv-x="1146" d="M106 444q0 198 131 332q133 137 336 137t336 -137q50 -52 81 -113q15 37 22 74q8 45 8 112v67q0 47 58 47q57 0 57 -47v-67q0 -135 -57 -256l-9 -16l-12 -14q-11 -9 -28 -12q11 -51 11 -107q0 -197 -131 -332q-133 -137 -336 -137t-336 137q-131 135 -131 332zM229 444 q0 -155 100 -259q99 -103 244 -103t244 103q100 104 100 259q0 156 -100 260q-99 103 -244 103t-244 -103q-100 -104 -100 -260zM394 1324q0 15 23 30q67 46 155 46q76 0 119 -34q51 -39 51 -98q0 -64 -81 -134q-44 -37 -56 -58q-9 -15 -9 -36v-33q0 -35 -47 -35 q-45 0 -45 35v32q0 35 21 70q6 11 27 31q5 5 30 28q67 58 67 100q0 62 -80 62q-52 0 -102 -31q-5 -3 -14 -7q-6 -2 -16 -2q-43 0 -43 34z" />
<glyph unicode="&#x1ee0;" horiz-adv-x="1585" d="M106 682q0 293 191 496q197 211 498 211q300 0 495 -211q20 -21 38 -44q21 47 30 94q8 45 8 112v67q0 47 58 47q57 0 57 -47v-67q0 -135 -57 -256l-9 -16l-11 -14q-7 -6 -16 -9q91 -160 91 -363q0 -293 -189 -496q-195 -211 -495 -211q-301 0 -498 211q-191 203 -191 496 zM229 682q0 -246 151 -417q160 -181 415 -181q254 0 412 181q149 171 149 417t-149 416q-158 182 -412 182q-255 0 -415 -182q-151 -170 -151 -416zM510 1530q0 17 12 33l21 26q60 76 151 76q53 0 105 -29l62 -35q29 -16 48 -16q29 0 72 43l20 21q9 8 15 12q11 6 24 6 q47 0 47 -41q0 -19 -12 -35l-24 -30q-65 -72 -140 -72q-44 0 -120 43q-67 37 -97 37q-42 0 -76 -39l-22 -25q-9 -8 -15 -12q-10 -6 -24 -6q-47 0 -47 43z" />
<glyph unicode="&#x1ee1;" horiz-adv-x="1146" d="M106 444q0 198 131 332q133 137 336 137t336 -137q50 -52 81 -113q15 37 22 74q8 45 8 112v67q0 47 58 47q57 0 57 -47v-67q0 -135 -57 -256l-9 -16l-12 -14q-11 -9 -28 -12q11 -51 11 -107q0 -197 -131 -332q-133 -137 -336 -137t-336 137q-131 135 -131 332zM229 444 q0 -155 100 -259q99 -103 244 -103t244 103q100 104 100 259q0 156 -100 260q-99 103 -244 103t-244 -103q-100 -104 -100 -260zM303 1104q0 17 12 33l20 26q61 76 152 76q53 0 104 -29l63 -35q29 -16 48 -16q29 0 72 43l20 21q9 8 15 12q11 6 24 6q47 0 47 -41 q0 -19 -12 -35l-18 -22q-4 -5 -7 -8q-64 -72 -139 -72q-45 0 -121 43q-67 37 -96 37q-42 0 -76 -39l-22 -25q-9 -8 -15 -12q-11 -6 -24 -6q-47 0 -47 43z" />
<glyph unicode="&#x1ee2;" horiz-adv-x="1585" d="M106 682q0 293 191 496q197 211 498 211q300 0 495 -211q20 -21 38 -44q21 47 30 94q8 45 8 112v67q0 47 58 47q57 0 57 -47v-67q0 -135 -57 -256l-9 -16l-11 -14q-7 -6 -16 -9q91 -160 91 -363q0 -293 -189 -496q-195 -211 -495 -211q-301 0 -498 211q-191 203 -191 496 zM229 682q0 -246 151 -417q160 -181 415 -181q254 0 412 181q149 171 149 417t-149 416q-158 182 -412 182q-255 0 -415 -182q-151 -170 -151 -416zM711 -168q0 82 82 82q81 0 81 -82t-81 -82q-82 0 -82 82z" />
<glyph unicode="&#x1ee3;" horiz-adv-x="1146" d="M106 444q0 198 131 332q133 137 336 137t336 -137q50 -52 81 -113q15 37 22 74q8 45 8 112v67q0 47 58 47q57 0 57 -47v-67q0 -135 -57 -256l-9 -16l-12 -14q-11 -9 -28 -12q11 -51 11 -107q0 -197 -131 -332q-133 -137 -336 -137t-336 137q-131 135 -131 332zM229 444 q0 -155 100 -259q99 -103 244 -103t244 103q100 104 100 259q0 156 -100 260q-99 103 -244 103t-244 -103q-100 -104 -100 -260zM491 -168q0 82 82 82t82 -82t-82 -82t-82 82z" />
<glyph unicode="&#x1ee4;" horiz-adv-x="1511" d="M180 537v782q0 61 61 61q62 0 62 -61v-791q0 -208 108 -322q116 -122 344 -122q229 0 345 122q108 114 108 322v791q0 61 62 61q61 0 61 -61v-782q0 -258 -154 -409q-155 -153 -422 -153q-266 0 -421 153q-154 151 -154 409zM674 -168q0 82 81 82q82 0 82 -82t-82 -82 q-81 0 -81 82z" />
<glyph unicode="&#x1ee5;" horiz-adv-x="1157" d="M153 387v457q0 61 61 61q62 0 62 -61v-455q0 -301 287 -301q133 0 218 89q89 91 89 239v428q0 61 61 61q62 0 62 -61v-799q0 -61 -62 -61q-61 0 -61 61v107q-103 -177 -334 -177q-175 0 -281 117q-102 114 -102 295zM490 -168q0 82 82 82t82 -82t-82 -82t-82 82z" />
<glyph unicode="&#x1ee6;" horiz-adv-x="1511" d="M180 537v782q0 61 61 61q62 0 62 -61v-791q0 -208 108 -322q116 -122 344 -122q229 0 345 122q108 114 108 322v791q0 61 62 61q61 0 61 -61v-782q0 -258 -154 -409q-155 -153 -422 -153q-266 0 -421 153q-154 151 -154 409zM598 1748q0 16 25 32q71 49 165 49 q80 0 126 -36q54 -42 54 -104q0 -69 -85 -142q-47 -41 -60 -62q-10 -16 -10 -39v-35q0 -37 -49 -37t-49 37v34q0 38 23 75q7 12 28 33q6 5 33 29q71 62 71 107q0 66 -85 66q-55 0 -108 -33q-6 -4 -15 -8q-7 -2 -17 -2q-47 0 -47 36z" />
<glyph unicode="&#x1ee7;" horiz-adv-x="1157" d="M153 387v457q0 61 61 61q62 0 62 -61v-455q0 -301 287 -301q133 0 218 89q89 91 89 239v428q0 61 61 61q62 0 62 -61v-799q0 -61 -62 -61q-61 0 -61 61v107q-103 -177 -334 -177q-175 0 -281 117q-102 114 -102 295zM446 1324q0 15 23 30q67 46 155 46q76 0 119 -34 q51 -39 51 -98q0 -64 -80 -134q-45 -37 -57 -58q-9 -15 -9 -36v-33q0 -35 -47 -35q-45 0 -45 35v32q0 35 21 70q7 11 27 31q5 5 31 28q67 58 67 100q0 62 -81 62q-51 0 -101 -31q-6 -3 -15 -7q-5 -2 -15 -2q-44 0 -44 34z" />
<glyph unicode="&#x1ee8;" horiz-adv-x="1523" d="M186 537v782q0 61 62 61q61 0 61 -61v-791q0 -208 108 -322q116 -122 345 -122t344 122q108 114 108 322v791q0 61 62 61q61 0 61 -61v-163q14 36 21 72q8 45 8 112v67q0 47 58 47q57 0 57 -47v-67q0 -135 -57 -256l-9 -16l-11 -14q-16 -13 -44 -13q-13 0 -23 2v-506 q0 -258 -154 -409q-155 -153 -421 -153t-422 153q-154 151 -154 409zM680 1528q0 19 16 39l113 127q8 10 21 17q14 7 28 7q51 0 51 -47q0 -22 -16 -41l-113 -121q-26 -28 -49 -28q-51 0 -51 47z" />
<glyph unicode="&#x1ee9;" horiz-adv-x="1157" d="M153 387v457q0 61 61 61t61 -61v-455q0 -301 287 -301q133 0 219 89q88 91 88 239v428q0 61 62 61q61 0 61 -61v-191q18 42 26 84q8 45 8 112v67q0 47 58 47q57 0 57 -47v-67q0 -135 -57 -256l-9 -16l-12 -14q-15 -13 -43 -13q-17 0 -28 4v-509q0 -61 -61 -61 q-62 0 -62 61v107q-102 -177 -333 -177q-176 0 -281 117q-102 114 -102 295zM495 1098q0 14 12 32l147 209q15 23 43 23q52 0 52 -47q0 -11 -4 -21q-3 -6 -9 -14l-141 -199q-25 -32 -51 -32q-49 0 -49 49z" />
<glyph unicode="&#x1eea;" horiz-adv-x="1523" d="M186 537v782q0 61 62 61q61 0 61 -61v-791q0 -208 108 -322q116 -122 345 -122t344 122q108 114 108 322v791q0 61 62 61q61 0 61 -61v-163q14 36 21 72q8 45 8 112v67q0 47 58 47q57 0 57 -47v-67q0 -135 -57 -256l-9 -16l-11 -14q-16 -13 -44 -13q-13 0 -23 2v-506 q0 -258 -154 -409q-155 -153 -421 -153t-422 153q-154 151 -154 409zM608 1671q0 47 51 47q15 0 29 -7q12 -7 21 -17l112 -127q17 -20 17 -39q0 -47 -52 -47q-23 0 -49 28l-112 121q-17 19 -17 41z" />
<glyph unicode="&#x1eeb;" horiz-adv-x="1157" d="M153 387v457q0 61 61 61t61 -61v-455q0 -301 287 -301q133 0 219 89q88 91 88 239v428q0 61 62 61q61 0 61 -61v-191q18 42 26 84q8 45 8 112v67q0 47 58 47q57 0 57 -47v-67q0 -135 -57 -256l-9 -16l-12 -14q-15 -13 -43 -13q-17 0 -28 4v-509q0 -61 -61 -61 q-62 0 -62 61v107q-102 -177 -333 -177q-176 0 -281 117q-102 114 -102 295zM415 1315q0 47 51 47q28 0 43 -23l147 -209q13 -18 13 -32q0 -49 -49 -49q-30 0 -52 32l-141 199q-6 8 -8 14q-4 10 -4 21z" />
<glyph unicode="&#x1eec;" horiz-adv-x="1511" d="M180 537v782q0 61 62 61q61 0 61 -61v-791q0 -208 108 -322q116 -122 345 -122q228 0 344 122q108 114 108 322v791q0 61 62 61q61 0 61 -61v-178q19 44 27 87q8 45 8 112v67q0 47 58 47q57 0 57 -47v-67q0 -135 -57 -256l-9 -16l-11 -14q-16 -13 -44 -13q-17 0 -29 4 v-508q0 -258 -154 -409q-155 -153 -421 -153q-267 0 -422 153q-154 151 -154 409zM599 1748q0 16 24 32q72 49 165 49q81 0 127 -36q54 -42 54 -104q0 -69 -86 -142q-47 -41 -60 -62q-9 -16 -9 -39v-35q0 -37 -50 -37q-48 0 -48 37v34q0 38 22 75q7 12 29 33q5 5 32 29 q71 62 71 107q0 66 -85 66q-55 0 -108 -33q-6 -4 -15 -8q-7 -2 -17 -2q-46 0 -46 36z" />
<glyph unicode="&#x1eed;" horiz-adv-x="1157" d="M153 387v457q0 61 61 61t61 -61v-455q0 -301 287 -301q133 0 219 89q88 91 88 239v428q0 61 62 61q61 0 61 -61v-191q18 42 26 84q8 45 8 112v67q0 47 58 47q57 0 57 -47v-67q0 -135 -57 -256l-9 -16l-12 -14q-15 -13 -43 -13q-17 0 -28 4v-509q0 -61 -61 -61 q-62 0 -62 61v107q-102 -177 -333 -177q-176 0 -281 117q-102 114 -102 295zM446 1324q0 15 23 30q67 46 155 46q76 0 119 -34q51 -39 51 -98q0 -64 -81 -134q-44 -37 -56 -58q-9 -15 -9 -36v-33q0 -35 -47 -35q-45 0 -45 35v32q0 35 21 70q6 11 27 31q5 5 30 28 q67 58 67 100q0 62 -80 62q-52 0 -102 -31q-5 -3 -14 -7q-6 -2 -16 -2q-43 0 -43 34z" />
<glyph unicode="&#x1eee;" horiz-adv-x="1511" d="M180 537v782q0 61 62 61q61 0 61 -61v-791q0 -208 108 -322q116 -122 345 -122q228 0 344 122q108 114 108 322v791q0 61 62 61q61 0 61 -61v-178q19 44 27 87q8 45 8 112v67q0 47 58 47q57 0 57 -47v-67q0 -135 -57 -256l-9 -16l-11 -14q-16 -13 -44 -13q-17 0 -29 4 v-508q0 -258 -154 -409q-155 -153 -421 -153q-267 0 -422 153q-154 151 -154 409zM510 1530q0 17 12 33l21 26q60 76 151 76q53 0 105 -29l62 -35q29 -16 48 -16q29 0 72 43l20 21q9 8 15 12q11 6 24 6q47 0 47 -41q0 -19 -12 -35l-24 -30q-65 -72 -140 -72q-44 0 -120 43 q-67 37 -97 37q-42 0 -76 -39l-22 -25q-9 -8 -15 -12q-10 -6 -24 -6q-47 0 -47 43z" />
<glyph unicode="&#x1eef;" horiz-adv-x="1157" d="M153 387v457q0 61 61 61t61 -61v-455q0 -301 287 -301q133 0 219 89q88 91 88 239v428q0 61 62 61q61 0 61 -61v-191q18 42 26 84q8 45 8 112v67q0 47 58 47q57 0 57 -47v-67q0 -135 -57 -256l-9 -16l-12 -14q-15 -13 -43 -13q-17 0 -28 4v-509q0 -61 -61 -61 q-62 0 -62 61v107q-102 -177 -333 -177q-176 0 -281 117q-102 114 -102 295zM302 1104q0 17 12 33l20 26q61 76 152 76q53 0 104 -29l63 -35q29 -16 48 -16q29 0 72 43l20 21q9 8 15 12q11 6 24 6q47 0 47 -41q0 -19 -12 -35l-18 -22q-4 -5 -7 -8q-64 -72 -139 -72 q-45 0 -121 43q-67 37 -96 37q-42 0 -76 -39l-22 -25q-9 -8 -15 -12q-11 -6 -24 -6q-47 0 -47 43z" />
<glyph unicode="&#x1ef0;" horiz-adv-x="1511" d="M180 537v782q0 61 62 61q61 0 61 -61v-791q0 -208 108 -322q116 -122 345 -122q228 0 344 122q108 114 108 322v791q0 61 62 61q61 0 61 -61v-178q19 44 27 87q8 45 8 112v67q0 47 58 47q57 0 57 -47v-67q0 -135 -57 -256l-9 -16l-11 -14q-16 -13 -44 -13q-17 0 -29 4 v-508q0 -258 -154 -409q-155 -153 -421 -153q-267 0 -422 153q-154 151 -154 409zM674 -168q0 82 82 82t82 -82t-82 -82t-82 82z" />
<glyph unicode="&#x1ef1;" horiz-adv-x="1157" d="M153 387v457q0 61 61 61t61 -61v-455q0 -301 287 -301q133 0 219 89q88 91 88 239v428q0 61 62 61q61 0 61 -61v-191q18 42 26 84q8 45 8 112v67q0 47 58 47q57 0 57 -47v-67q0 -135 -57 -256l-9 -16l-12 -14q-15 -13 -43 -13q-17 0 -28 4v-509q0 -61 -61 -61 q-62 0 -62 61v107q-102 -177 -333 -177q-176 0 -281 117q-102 114 -102 295zM490 -168q0 82 82 82t82 -82t-82 -82t-82 82z" />
<glyph unicode="&#x1ef2;" horiz-adv-x="1130" d="M10 1325q0 55 55 55q33 0 54 -28l446 -639l446 639q21 28 54 28q55 0 55 -55q0 -16 -12 -35l-482 -692v-553q0 -61 -61 -61t-61 61v553l-482 692q-12 19 -12 35zM475 1671q0 47 51 47q15 0 29 -7q12 -7 20 -17l113 -127q16 -20 16 -39q0 -47 -51 -47q-23 0 -49 28 l-113 121q-16 19 -16 41z" />
<glyph unicode="&#x1ef3;" horiz-adv-x="886" d="M26 850q0 55 57 55q37 0 54 -39l309 -729l303 733q14 35 51 35q55 0 55 -55q0 -11 -6 -27l-301 -729q-64 -153 -157 -272q-104 -134 -234 -211q-17 -10 -37 -10q-53 0 -53 51q0 30 37 51q171 119 278 303l-353 829q-3 8 -3 15zM272 1315q0 47 51 47q28 0 43 -23l148 -209 q12 -18 12 -32q0 -49 -49 -49q-29 0 -51 32l-142 199q-5 8 -8 14q-4 10 -4 21z" />
<glyph unicode="&#x1ef4;" horiz-adv-x="1130" d="M10 1325q0 55 55 55q33 0 54 -28l446 -639l446 639q21 28 54 28q55 0 55 -55q0 -16 -12 -35l-482 -692v-553q0 -61 -61 -61t-61 61v553l-482 692q-12 19 -12 35zM483 -168q0 82 82 82t82 -82t-82 -82t-82 82z" />
<glyph unicode="&#x1ef5;" horiz-adv-x="886" d="M26 850q0 55 57 55q37 0 54 -39l309 -729l303 733q14 35 51 35q55 0 55 -55q0 -11 -6 -27l-301 -729q-64 -153 -157 -272q-104 -134 -234 -211q-17 -10 -37 -10q-53 0 -53 51q0 30 37 51q171 119 278 303l-353 829q-3 8 -3 15zM490 -168q0 82 82 82t82 -82t-82 -82 t-82 82z" />
<glyph unicode="&#x1ef6;" horiz-adv-x="1130" d="M10 1325q0 55 55 55q33 0 54 -28l446 -639l446 639q21 28 54 28q55 0 55 -55q0 -16 -12 -35l-482 -692v-553q0 -61 -61 -61t-61 61v553l-482 692q-12 19 -12 35zM438 1748q0 16 25 32q71 49 165 49q80 0 126 -36q54 -42 54 -104q0 -69 -85 -142q-47 -41 -60 -62 q-10 -16 -10 -39v-35q0 -37 -49 -37t-49 37v34q0 38 23 75q7 12 28 33q6 5 33 29q71 62 71 107q0 66 -85 66q-55 0 -108 -33q-6 -4 -15 -8q-7 -2 -17 -2q-47 0 -47 36z" />
<glyph unicode="&#x1ef7;" horiz-adv-x="886" d="M26 850q0 55 57 55q37 0 54 -39l309 -729l303 733q14 35 51 35q55 0 55 -55q0 -11 -6 -27l-301 -729q-64 -153 -157 -272q-104 -134 -234 -211q-17 -10 -37 -10q-53 0 -53 51q0 30 37 51q171 119 278 303l-353 829q-3 8 -3 15zM312 1324q0 15 23 30q67 46 155 46 q76 0 119 -34q51 -39 51 -98q0 -64 -80 -134q-45 -37 -57 -58q-9 -15 -9 -36v-33q0 -35 -47 -35q-45 0 -45 35v32q0 35 21 70q7 11 27 31q5 5 31 28q67 58 67 100q0 62 -81 62q-51 0 -101 -31q-6 -3 -15 -7q-5 -2 -15 -2q-44 0 -44 34z" />
<glyph unicode="&#x1ef8;" horiz-adv-x="1130" d="M10 1325q0 55 55 55q33 0 54 -28l446 -639l446 639q21 28 54 28q55 0 55 -55q0 -16 -12 -35l-482 -692v-553q0 -61 -61 -61t-61 61v553l-482 692q-12 19 -12 35zM341 1530q0 17 12 33l20 26q61 76 152 76q53 0 104 -29l63 -35q29 -16 48 -16q29 0 72 43l20 21q9 8 15 12 q11 6 24 6q47 0 47 -41q0 -19 -12 -35l-25 -30q-64 -72 -139 -72q-45 0 -121 43q-67 37 -96 37q-42 0 -76 -39l-22 -25q-9 -8 -15 -12q-11 -6 -24 -6q-47 0 -47 43z" />
<glyph unicode="&#x1ef9;" horiz-adv-x="886" d="M26 850q0 55 57 55q37 0 54 -39l309 -729l303 733q14 35 51 35q55 0 55 -55q0 -11 -6 -27l-301 -729q-64 -153 -157 -272q-104 -134 -234 -211q-17 -10 -37 -10q-53 0 -53 51q0 30 37 51q171 119 278 303l-353 829q-3 8 -3 15zM177 1104q0 17 12 33l21 26q60 76 151 76 q53 0 105 -29l62 -35q29 -16 48 -16q29 0 72 43l21 21q8 8 14 12q11 6 24 6q48 0 48 -41q0 -19 -13 -35l-18 -22q-4 -5 -6 -8q-65 -72 -140 -72q-44 0 -120 43q-67 37 -97 37q-42 0 -75 -39l-23 -25q-9 -8 -15 -12q-10 -6 -24 -6q-47 0 -47 43z" />
<glyph unicode="&#x2000;" horiz-adv-x="1052" />
<glyph unicode="&#x2001;" horiz-adv-x="2105" />
<glyph unicode="&#x2002;" horiz-adv-x="1052" />
<glyph unicode="&#x2003;" horiz-adv-x="2105" />
<glyph unicode="&#x2004;" horiz-adv-x="701" />
<glyph unicode="&#x2005;" horiz-adv-x="526" />
<glyph unicode="&#x2006;" horiz-adv-x="350" />
<glyph unicode="&#x2007;" horiz-adv-x="350" />
<glyph unicode="&#x2008;" horiz-adv-x="263" />
<glyph unicode="&#x2009;" horiz-adv-x="421" />
<glyph unicode="&#x200a;" horiz-adv-x="116" />
<glyph unicode="&#x2010;" horiz-adv-x="897" d="M143 508q0 51 53 51h504q53 0 53 -51t-53 -51h-504q-53 0 -53 51z" />
<glyph unicode="&#x2011;" horiz-adv-x="897" d="M143 508q0 51 53 51h504q53 0 53 -51t-53 -51h-504q-53 0 -53 51z" />
<glyph unicode="&#x2012;" horiz-adv-x="897" d="M143 508q0 51 53 51h504q53 0 53 -51t-53 -51h-504q-53 0 -53 51z" />
<glyph unicode="&#x2013;" horiz-adv-x="1311" d="M143 508q0 51 89 51h846q89 0 89 -51t-89 -51h-846q-89 0 -89 51z" />
<glyph unicode="&#x2014;" horiz-adv-x="2335" d="M143 508q0 51 178 51h1692q178 0 178 -51t-178 -51h-1692q-178 0 -178 51z" />
<glyph unicode="&#x2018;" horiz-adv-x="448" d="M153 909v88q0 179 55 328q20 55 64 55q53 0 53 -49q0 -10 -4 -22q-1 -4 -3 -9l-3 -10q-51 -151 -51 -293v-88q0 -57 -56 -57q-55 0 -55 57z" />
<glyph unicode="&#x2019;" horiz-adv-x="448" d="M143 901q0 10 4 22q1 4 3 10l3 9q51 151 51 293v88q0 57 56 57q55 0 55 -57v-88q0 -178 -55 -328q-20 -55 -64 -55q-53 0 -53 49z" />
<glyph unicode="&#x201c;" horiz-adv-x="811" d="M153 909v88q0 179 55 328q20 55 64 55q53 0 53 -49q0 -10 -4 -22q-1 -4 -3 -9l-3 -10q-51 -151 -51 -293v-88q0 -57 -56 -57q-55 0 -55 57zM515 909v88q0 179 56 328q20 55 63 55q54 0 54 -49q0 -10 -4 -22q-1 -4 -3 -9l-4 -10q-51 -151 -51 -293v-88q0 -57 -55 -57 q-56 0 -56 57z" />
<glyph unicode="&#x201d;" horiz-adv-x="811" d="M143 901q0 10 4 22q1 4 3 10l3 9q51 151 51 293v88q0 57 56 57q55 0 55 -57v-88q0 -178 -55 -328q-20 -55 -64 -55q-53 0 -53 49zM505 901q0 10 4 22q1 4 3 10l4 9q51 151 51 293v88q0 57 55 57q56 0 56 -57v-88q0 -178 -56 -328q-20 -55 -63 -55q-54 0 -54 49z" />
<glyph unicode="&#x2026;" horiz-adv-x="1437" d="M153 74q0 86 86 86t86 -86t-86 -86t-86 86zM632 74q0 86 86 86t86 -86t-86 -86t-86 86zM1111 74q0 86 86 86t86 -86t-86 -86t-86 86z" />
<glyph unicode="&#x202f;" horiz-adv-x="421" />
<glyph unicode="&#x205f;" horiz-adv-x="526" />
<glyph unicode="&#x25fc;" horiz-adv-x="905" d="M0 0v905h905v-905h-905z" />
</font>
</defs>
</svg>
